G04 #@! TF.GenerationSoftware,KiCad,Pcbnew,(5.1.9-0-10_14)*
G04 #@! TF.CreationDate,2021-05-28T11:35:46+01:00*
G04 #@! TF.ProjectId,ATtinyRGBLamp,41547469-6e79-4524-9742-4c616d702e6b,rev?*
G04 #@! TF.SameCoordinates,Original*
G04 #@! TF.FileFunction,Copper,L1,Top*
G04 #@! TF.FilePolarity,Positive*
%FSLAX46Y46*%
G04 Gerber Fmt 4.6, Leading zero omitted, Abs format (unit mm)*
G04 Created by KiCad (PCBNEW (5.1.9-0-10_14)) date 2021-05-28 11:35:46*
%MOMM*%
%LPD*%
G01*
G04 APERTURE LIST*
G04 #@! TA.AperFunction,NonConductor*
%ADD10C,0.200000*%
G04 #@! TD*
G04 #@! TA.AperFunction,NonConductor*
%ADD11C,0.300000*%
G04 #@! TD*
G04 #@! TA.AperFunction,EtchedComponent*
%ADD12C,0.010000*%
G04 #@! TD*
G04 #@! TA.AperFunction,ComponentPad*
%ADD13C,4.000000*%
G04 #@! TD*
G04 #@! TA.AperFunction,ComponentPad*
%ADD14C,1.600000*%
G04 #@! TD*
G04 #@! TA.AperFunction,ComponentPad*
%ADD15R,1.600000X1.600000*%
G04 #@! TD*
G04 #@! TA.AperFunction,ComponentPad*
%ADD16R,1.070000X1.800000*%
G04 #@! TD*
G04 #@! TA.AperFunction,ComponentPad*
%ADD17O,1.070000X1.800000*%
G04 #@! TD*
G04 #@! TA.AperFunction,ComponentPad*
%ADD18O,1.600000X1.600000*%
G04 #@! TD*
G04 #@! TA.AperFunction,ComponentPad*
%ADD19C,2.340000*%
G04 #@! TD*
G04 #@! TA.AperFunction,Conductor*
%ADD20C,1.016000*%
G04 #@! TD*
G04 APERTURE END LIST*
D10*
X150748571Y-85102380D02*
X150272380Y-85102380D01*
X150272380Y-84102380D01*
X150986666Y-84102380D02*
X151224761Y-85102380D01*
X151415238Y-84388095D01*
X151605714Y-85102380D01*
X151843809Y-84102380D01*
X152939047Y-84197619D02*
X152986666Y-84150000D01*
X153081904Y-84102380D01*
X153320000Y-84102380D01*
X153415238Y-84150000D01*
X153462857Y-84197619D01*
X153510476Y-84292857D01*
X153510476Y-84388095D01*
X153462857Y-84530952D01*
X152891428Y-85102380D01*
X153510476Y-85102380D01*
X153843809Y-84102380D02*
X154510476Y-84102380D01*
X154081904Y-85102380D01*
X155605714Y-84054761D02*
X154748571Y-85340476D01*
X156415238Y-84102380D02*
X155939047Y-84102380D01*
X155891428Y-84578571D01*
X155939047Y-84530952D01*
X156034285Y-84483333D01*
X156272380Y-84483333D01*
X156367619Y-84530952D01*
X156415238Y-84578571D01*
X156462857Y-84673809D01*
X156462857Y-84911904D01*
X156415238Y-85007142D01*
X156367619Y-85054761D01*
X156272380Y-85102380D01*
X156034285Y-85102380D01*
X155939047Y-85054761D01*
X155891428Y-85007142D01*
X157605714Y-84054761D02*
X156748571Y-85340476D01*
X157891428Y-84197619D02*
X157939047Y-84150000D01*
X158034285Y-84102380D01*
X158272380Y-84102380D01*
X158367619Y-84150000D01*
X158415238Y-84197619D01*
X158462857Y-84292857D01*
X158462857Y-84388095D01*
X158415238Y-84530952D01*
X157843809Y-85102380D01*
X158462857Y-85102380D01*
X159415238Y-85102380D02*
X158843809Y-85102380D01*
X159129523Y-85102380D02*
X159129523Y-84102380D01*
X159034285Y-84245238D01*
X158939047Y-84340476D01*
X158843809Y-84388095D01*
D11*
X150652857Y-44880000D02*
X151367142Y-44880000D01*
X150510000Y-45308571D02*
X151010000Y-43808571D01*
X151510000Y-45308571D01*
X151795714Y-43808571D02*
X152652857Y-43808571D01*
X152224285Y-45308571D02*
X152224285Y-43808571D01*
X152938571Y-44308571D02*
X153510000Y-44308571D01*
X153152857Y-43808571D02*
X153152857Y-45094285D01*
X153224285Y-45237142D01*
X153367142Y-45308571D01*
X153510000Y-45308571D01*
X154010000Y-45308571D02*
X154010000Y-44308571D01*
X154010000Y-43808571D02*
X153938571Y-43880000D01*
X154010000Y-43951428D01*
X154081428Y-43880000D01*
X154010000Y-43808571D01*
X154010000Y-43951428D01*
X154724285Y-44308571D02*
X154724285Y-45308571D01*
X154724285Y-44451428D02*
X154795714Y-44380000D01*
X154938571Y-44308571D01*
X155152857Y-44308571D01*
X155295714Y-44380000D01*
X155367142Y-44522857D01*
X155367142Y-45308571D01*
X155938571Y-44308571D02*
X156295714Y-45308571D01*
X156652857Y-44308571D02*
X156295714Y-45308571D01*
X156152857Y-45665714D01*
X156081428Y-45737142D01*
X155938571Y-45808571D01*
X157438571Y-44451428D02*
X157295714Y-44380000D01*
X157224285Y-44308571D01*
X157152857Y-44165714D01*
X157152857Y-44094285D01*
X157224285Y-43951428D01*
X157295714Y-43880000D01*
X157438571Y-43808571D01*
X157724285Y-43808571D01*
X157867142Y-43880000D01*
X157938571Y-43951428D01*
X158010000Y-44094285D01*
X158010000Y-44165714D01*
X157938571Y-44308571D01*
X157867142Y-44380000D01*
X157724285Y-44451428D01*
X157438571Y-44451428D01*
X157295714Y-44522857D01*
X157224285Y-44594285D01*
X157152857Y-44737142D01*
X157152857Y-45022857D01*
X157224285Y-45165714D01*
X157295714Y-45237142D01*
X157438571Y-45308571D01*
X157724285Y-45308571D01*
X157867142Y-45237142D01*
X157938571Y-45165714D01*
X158010000Y-45022857D01*
X158010000Y-44737142D01*
X157938571Y-44594285D01*
X157867142Y-44522857D01*
X157724285Y-44451428D01*
X159295714Y-44308571D02*
X159295714Y-45308571D01*
X158938571Y-43737142D02*
X158581428Y-44808571D01*
X159510000Y-44808571D01*
X160010000Y-44880000D02*
X160724285Y-44880000D01*
X159867142Y-45308571D02*
X160367142Y-43808571D01*
X160867142Y-45308571D01*
X151295714Y-47715714D02*
X151224285Y-47787142D01*
X151010000Y-47858571D01*
X150867142Y-47858571D01*
X150652857Y-47787142D01*
X150510000Y-47644285D01*
X150438571Y-47501428D01*
X150367142Y-47215714D01*
X150367142Y-47001428D01*
X150438571Y-46715714D01*
X150510000Y-46572857D01*
X150652857Y-46430000D01*
X150867142Y-46358571D01*
X151010000Y-46358571D01*
X151224285Y-46430000D01*
X151295714Y-46501428D01*
X152152857Y-47858571D02*
X152010000Y-47787142D01*
X151938571Y-47715714D01*
X151867142Y-47572857D01*
X151867142Y-47144285D01*
X151938571Y-47001428D01*
X152010000Y-46930000D01*
X152152857Y-46858571D01*
X152367142Y-46858571D01*
X152510000Y-46930000D01*
X152581428Y-47001428D01*
X152652857Y-47144285D01*
X152652857Y-47572857D01*
X152581428Y-47715714D01*
X152510000Y-47787142D01*
X152367142Y-47858571D01*
X152152857Y-47858571D01*
X153510000Y-47858571D02*
X153367142Y-47787142D01*
X153295714Y-47644285D01*
X153295714Y-46358571D01*
X154295714Y-47858571D02*
X154152857Y-47787142D01*
X154081428Y-47715714D01*
X154010000Y-47572857D01*
X154010000Y-47144285D01*
X154081428Y-47001428D01*
X154152857Y-46930000D01*
X154295714Y-46858571D01*
X154510000Y-46858571D01*
X154652857Y-46930000D01*
X154724285Y-47001428D01*
X154795714Y-47144285D01*
X154795714Y-47572857D01*
X154724285Y-47715714D01*
X154652857Y-47787142D01*
X154510000Y-47858571D01*
X154295714Y-47858571D01*
X156081428Y-46858571D02*
X156081428Y-47858571D01*
X155438571Y-46858571D02*
X155438571Y-47644285D01*
X155510000Y-47787142D01*
X155652857Y-47858571D01*
X155867142Y-47858571D01*
X156010000Y-47787142D01*
X156081428Y-47715714D01*
X156795714Y-47858571D02*
X156795714Y-46858571D01*
X156795714Y-47144285D02*
X156867142Y-47001428D01*
X156938571Y-46930000D01*
X157081428Y-46858571D01*
X157224285Y-46858571D01*
X157724285Y-47858571D02*
X157724285Y-46858571D01*
X157724285Y-47001428D02*
X157795714Y-46930000D01*
X157938571Y-46858571D01*
X158152857Y-46858571D01*
X158295714Y-46930000D01*
X158367142Y-47072857D01*
X158367142Y-47858571D01*
X158367142Y-47072857D02*
X158438571Y-46930000D01*
X158581428Y-46858571D01*
X158795714Y-46858571D01*
X158938571Y-46930000D01*
X159010000Y-47072857D01*
X159010000Y-47858571D01*
X159724285Y-47858571D02*
X159724285Y-46858571D01*
X159724285Y-46358571D02*
X159652857Y-46430000D01*
X159724285Y-46501428D01*
X159795714Y-46430000D01*
X159724285Y-46358571D01*
X159724285Y-46501428D01*
X160295714Y-47858571D02*
X161081428Y-46858571D01*
X160295714Y-46858571D02*
X161081428Y-47858571D01*
X154367142Y-50408571D02*
X153652857Y-50408571D01*
X153652857Y-48908571D01*
X155510000Y-50408571D02*
X155510000Y-49622857D01*
X155438571Y-49480000D01*
X155295714Y-49408571D01*
X155010000Y-49408571D01*
X154867142Y-49480000D01*
X155510000Y-50337142D02*
X155367142Y-50408571D01*
X155010000Y-50408571D01*
X154867142Y-50337142D01*
X154795714Y-50194285D01*
X154795714Y-50051428D01*
X154867142Y-49908571D01*
X155010000Y-49837142D01*
X155367142Y-49837142D01*
X155510000Y-49765714D01*
X156224285Y-50408571D02*
X156224285Y-49408571D01*
X156224285Y-49551428D02*
X156295714Y-49480000D01*
X156438571Y-49408571D01*
X156652857Y-49408571D01*
X156795714Y-49480000D01*
X156867142Y-49622857D01*
X156867142Y-50408571D01*
X156867142Y-49622857D02*
X156938571Y-49480000D01*
X157081428Y-49408571D01*
X157295714Y-49408571D01*
X157438571Y-49480000D01*
X157510000Y-49622857D01*
X157510000Y-50408571D01*
X158224285Y-49408571D02*
X158224285Y-50908571D01*
X158224285Y-49480000D02*
X158367142Y-49408571D01*
X158652857Y-49408571D01*
X158795714Y-49480000D01*
X158867142Y-49551428D01*
X158938571Y-49694285D01*
X158938571Y-50122857D01*
X158867142Y-50265714D01*
X158795714Y-50337142D01*
X158652857Y-50408571D01*
X158367142Y-50408571D01*
X158224285Y-50337142D01*
D12*
G04 #@! TO.C,G\u002A\u002A\u002A*
G36*
X120858681Y-46724809D02*
G01*
X120928799Y-46729844D01*
X120998748Y-46738161D01*
X121068413Y-46749767D01*
X121137677Y-46764670D01*
X121206424Y-46782877D01*
X121221860Y-46787445D01*
X121289218Y-46809524D01*
X121355196Y-46834693D01*
X121419773Y-46862940D01*
X121482929Y-46894254D01*
X121544640Y-46928623D01*
X121604887Y-46966034D01*
X121663648Y-47006475D01*
X121720901Y-47049936D01*
X121776624Y-47096403D01*
X121782231Y-47101319D01*
X121792480Y-47110589D01*
X121804518Y-47121875D01*
X121817886Y-47134717D01*
X121832122Y-47148653D01*
X121846769Y-47163221D01*
X121861365Y-47177959D01*
X121875451Y-47192404D01*
X121888567Y-47206096D01*
X121900254Y-47218572D01*
X121910051Y-47229371D01*
X121912725Y-47232412D01*
X121959280Y-47288332D01*
X122002757Y-47345660D01*
X122043172Y-47404421D01*
X122080539Y-47464640D01*
X122114871Y-47526341D01*
X122146184Y-47589551D01*
X122174491Y-47654293D01*
X122199808Y-47720592D01*
X122209169Y-47747761D01*
X122227533Y-47806697D01*
X122243334Y-47866018D01*
X122256660Y-47926170D01*
X122267599Y-47987598D01*
X122276240Y-48050748D01*
X122282670Y-48116065D01*
X122283051Y-48120880D01*
X122283650Y-48130795D01*
X122284150Y-48143551D01*
X122284551Y-48158630D01*
X122284853Y-48175516D01*
X122285056Y-48193693D01*
X122285159Y-48212645D01*
X122285164Y-48231855D01*
X122285069Y-48250807D01*
X122284875Y-48268984D01*
X122284581Y-48285871D01*
X122284188Y-48300950D01*
X122283695Y-48313705D01*
X122283103Y-48323621D01*
X122283067Y-48324080D01*
X122277866Y-48379865D01*
X122271300Y-48433118D01*
X122263261Y-48484454D01*
X122253638Y-48534486D01*
X122242322Y-48583829D01*
X122229205Y-48633095D01*
X122226027Y-48644120D01*
X122204542Y-48711652D01*
X122179961Y-48777882D01*
X122152349Y-48842714D01*
X122121773Y-48906055D01*
X122088299Y-48967810D01*
X122051995Y-49027884D01*
X122012926Y-49086185D01*
X121971158Y-49142617D01*
X121926760Y-49197086D01*
X121879796Y-49249498D01*
X121830334Y-49299759D01*
X121778440Y-49347774D01*
X121724181Y-49393450D01*
X121667623Y-49436691D01*
X121665634Y-49438137D01*
X121607471Y-49478251D01*
X121547561Y-49515497D01*
X121486029Y-49549828D01*
X121423002Y-49581197D01*
X121358605Y-49609556D01*
X121292963Y-49634859D01*
X121226204Y-49657059D01*
X121158451Y-49676108D01*
X121089831Y-49691959D01*
X121020470Y-49704566D01*
X120950493Y-49713881D01*
X120921293Y-49716770D01*
X120887373Y-49719323D01*
X120851553Y-49721166D01*
X120814848Y-49722280D01*
X120778275Y-49722644D01*
X120742851Y-49722240D01*
X120709591Y-49721048D01*
X120706240Y-49720875D01*
X120635908Y-49715450D01*
X120566030Y-49706719D01*
X120496736Y-49694731D01*
X120428155Y-49679534D01*
X120360419Y-49661176D01*
X120293656Y-49639705D01*
X120227999Y-49615171D01*
X120163575Y-49587621D01*
X120100517Y-49557105D01*
X120038953Y-49523669D01*
X119979014Y-49487362D01*
X119920831Y-49448234D01*
X119868887Y-49409725D01*
X119845762Y-49391480D01*
X119824161Y-49373779D01*
X119803450Y-49356060D01*
X119782994Y-49337759D01*
X119762162Y-49318313D01*
X119740318Y-49297160D01*
X119724036Y-49280984D01*
X119700901Y-49257467D01*
X119679873Y-49235350D01*
X119660373Y-49213968D01*
X119641823Y-49192657D01*
X119623646Y-49170752D01*
X119605263Y-49147587D01*
X119586096Y-49122499D01*
X119585129Y-49121212D01*
X119544037Y-49063680D01*
X119505871Y-49004502D01*
X119470660Y-48943786D01*
X119438431Y-48881639D01*
X119409215Y-48818168D01*
X119383039Y-48753480D01*
X119359932Y-48687683D01*
X119339922Y-48620884D01*
X119323038Y-48553190D01*
X119309308Y-48484708D01*
X119298762Y-48415547D01*
X119291427Y-48345812D01*
X119287332Y-48275612D01*
X119286505Y-48205054D01*
X119288976Y-48134245D01*
X119294772Y-48063292D01*
X119297452Y-48039600D01*
X119307550Y-47970176D01*
X119320953Y-47901320D01*
X119337604Y-47833170D01*
X119357447Y-47765863D01*
X119380428Y-47699537D01*
X119406492Y-47634328D01*
X119435581Y-47570375D01*
X119467642Y-47507815D01*
X119502619Y-47446785D01*
X119540456Y-47387423D01*
X119581098Y-47329866D01*
X119586622Y-47322473D01*
X119630928Y-47266351D01*
X119677623Y-47212595D01*
X119726636Y-47161268D01*
X119777896Y-47112427D01*
X119831332Y-47066134D01*
X119886871Y-47022448D01*
X119944443Y-46981430D01*
X120003976Y-46943140D01*
X120065399Y-46907636D01*
X120104260Y-46887122D01*
X120117120Y-46880631D01*
X120130479Y-46873995D01*
X120143617Y-46867562D01*
X120155814Y-46861684D01*
X120166352Y-46856710D01*
X120173625Y-46853383D01*
X120239077Y-46825995D01*
X120305516Y-46801818D01*
X120372827Y-46780856D01*
X120440892Y-46763119D01*
X120509598Y-46748614D01*
X120578828Y-46737346D01*
X120648467Y-46729325D01*
X120718400Y-46724557D01*
X120788509Y-46723049D01*
X120858681Y-46724809D01*
G37*
X120858681Y-46724809D02*
X120928799Y-46729844D01*
X120998748Y-46738161D01*
X121068413Y-46749767D01*
X121137677Y-46764670D01*
X121206424Y-46782877D01*
X121221860Y-46787445D01*
X121289218Y-46809524D01*
X121355196Y-46834693D01*
X121419773Y-46862940D01*
X121482929Y-46894254D01*
X121544640Y-46928623D01*
X121604887Y-46966034D01*
X121663648Y-47006475D01*
X121720901Y-47049936D01*
X121776624Y-47096403D01*
X121782231Y-47101319D01*
X121792480Y-47110589D01*
X121804518Y-47121875D01*
X121817886Y-47134717D01*
X121832122Y-47148653D01*
X121846769Y-47163221D01*
X121861365Y-47177959D01*
X121875451Y-47192404D01*
X121888567Y-47206096D01*
X121900254Y-47218572D01*
X121910051Y-47229371D01*
X121912725Y-47232412D01*
X121959280Y-47288332D01*
X122002757Y-47345660D01*
X122043172Y-47404421D01*
X122080539Y-47464640D01*
X122114871Y-47526341D01*
X122146184Y-47589551D01*
X122174491Y-47654293D01*
X122199808Y-47720592D01*
X122209169Y-47747761D01*
X122227533Y-47806697D01*
X122243334Y-47866018D01*
X122256660Y-47926170D01*
X122267599Y-47987598D01*
X122276240Y-48050748D01*
X122282670Y-48116065D01*
X122283051Y-48120880D01*
X122283650Y-48130795D01*
X122284150Y-48143551D01*
X122284551Y-48158630D01*
X122284853Y-48175516D01*
X122285056Y-48193693D01*
X122285159Y-48212645D01*
X122285164Y-48231855D01*
X122285069Y-48250807D01*
X122284875Y-48268984D01*
X122284581Y-48285871D01*
X122284188Y-48300950D01*
X122283695Y-48313705D01*
X122283103Y-48323621D01*
X122283067Y-48324080D01*
X122277866Y-48379865D01*
X122271300Y-48433118D01*
X122263261Y-48484454D01*
X122253638Y-48534486D01*
X122242322Y-48583829D01*
X122229205Y-48633095D01*
X122226027Y-48644120D01*
X122204542Y-48711652D01*
X122179961Y-48777882D01*
X122152349Y-48842714D01*
X122121773Y-48906055D01*
X122088299Y-48967810D01*
X122051995Y-49027884D01*
X122012926Y-49086185D01*
X121971158Y-49142617D01*
X121926760Y-49197086D01*
X121879796Y-49249498D01*
X121830334Y-49299759D01*
X121778440Y-49347774D01*
X121724181Y-49393450D01*
X121667623Y-49436691D01*
X121665634Y-49438137D01*
X121607471Y-49478251D01*
X121547561Y-49515497D01*
X121486029Y-49549828D01*
X121423002Y-49581197D01*
X121358605Y-49609556D01*
X121292963Y-49634859D01*
X121226204Y-49657059D01*
X121158451Y-49676108D01*
X121089831Y-49691959D01*
X121020470Y-49704566D01*
X120950493Y-49713881D01*
X120921293Y-49716770D01*
X120887373Y-49719323D01*
X120851553Y-49721166D01*
X120814848Y-49722280D01*
X120778275Y-49722644D01*
X120742851Y-49722240D01*
X120709591Y-49721048D01*
X120706240Y-49720875D01*
X120635908Y-49715450D01*
X120566030Y-49706719D01*
X120496736Y-49694731D01*
X120428155Y-49679534D01*
X120360419Y-49661176D01*
X120293656Y-49639705D01*
X120227999Y-49615171D01*
X120163575Y-49587621D01*
X120100517Y-49557105D01*
X120038953Y-49523669D01*
X119979014Y-49487362D01*
X119920831Y-49448234D01*
X119868887Y-49409725D01*
X119845762Y-49391480D01*
X119824161Y-49373779D01*
X119803450Y-49356060D01*
X119782994Y-49337759D01*
X119762162Y-49318313D01*
X119740318Y-49297160D01*
X119724036Y-49280984D01*
X119700901Y-49257467D01*
X119679873Y-49235350D01*
X119660373Y-49213968D01*
X119641823Y-49192657D01*
X119623646Y-49170752D01*
X119605263Y-49147587D01*
X119586096Y-49122499D01*
X119585129Y-49121212D01*
X119544037Y-49063680D01*
X119505871Y-49004502D01*
X119470660Y-48943786D01*
X119438431Y-48881639D01*
X119409215Y-48818168D01*
X119383039Y-48753480D01*
X119359932Y-48687683D01*
X119339922Y-48620884D01*
X119323038Y-48553190D01*
X119309308Y-48484708D01*
X119298762Y-48415547D01*
X119291427Y-48345812D01*
X119287332Y-48275612D01*
X119286505Y-48205054D01*
X119288976Y-48134245D01*
X119294772Y-48063292D01*
X119297452Y-48039600D01*
X119307550Y-47970176D01*
X119320953Y-47901320D01*
X119337604Y-47833170D01*
X119357447Y-47765863D01*
X119380428Y-47699537D01*
X119406492Y-47634328D01*
X119435581Y-47570375D01*
X119467642Y-47507815D01*
X119502619Y-47446785D01*
X119540456Y-47387423D01*
X119581098Y-47329866D01*
X119586622Y-47322473D01*
X119630928Y-47266351D01*
X119677623Y-47212595D01*
X119726636Y-47161268D01*
X119777896Y-47112427D01*
X119831332Y-47066134D01*
X119886871Y-47022448D01*
X119944443Y-46981430D01*
X120003976Y-46943140D01*
X120065399Y-46907636D01*
X120104260Y-46887122D01*
X120117120Y-46880631D01*
X120130479Y-46873995D01*
X120143617Y-46867562D01*
X120155814Y-46861684D01*
X120166352Y-46856710D01*
X120173625Y-46853383D01*
X120239077Y-46825995D01*
X120305516Y-46801818D01*
X120372827Y-46780856D01*
X120440892Y-46763119D01*
X120509598Y-46748614D01*
X120578828Y-46737346D01*
X120648467Y-46729325D01*
X120718400Y-46724557D01*
X120788509Y-46723049D01*
X120858681Y-46724809D01*
G36*
X124209734Y-46725731D02*
G01*
X124280511Y-46731566D01*
X124302880Y-46734105D01*
X124372490Y-46744228D01*
X124441500Y-46757667D01*
X124509814Y-46774386D01*
X124577338Y-46794352D01*
X124643976Y-46817531D01*
X124709632Y-46843889D01*
X124774212Y-46873393D01*
X124837622Y-46906008D01*
X124899764Y-46941700D01*
X124919700Y-46953975D01*
X124974930Y-46990461D01*
X125028979Y-47029966D01*
X125081617Y-47072258D01*
X125132610Y-47117105D01*
X125181726Y-47164276D01*
X125228735Y-47213537D01*
X125273403Y-47264659D01*
X125315500Y-47317407D01*
X125354792Y-47371551D01*
X125388505Y-47422780D01*
X125421400Y-47477861D01*
X125452179Y-47534552D01*
X125480522Y-47592215D01*
X125506112Y-47650210D01*
X125522580Y-47691620D01*
X125545974Y-47758083D01*
X125566154Y-47825500D01*
X125583111Y-47893735D01*
X125596839Y-47962653D01*
X125607328Y-48032119D01*
X125614571Y-48101997D01*
X125618560Y-48172153D01*
X125619288Y-48242449D01*
X125616746Y-48312753D01*
X125610927Y-48382927D01*
X125601823Y-48452837D01*
X125589426Y-48522347D01*
X125574503Y-48588240D01*
X125555568Y-48657005D01*
X125533559Y-48724358D01*
X125508473Y-48790303D01*
X125480306Y-48854846D01*
X125449058Y-48917990D01*
X125414725Y-48979741D01*
X125377305Y-49040104D01*
X125336794Y-49099083D01*
X125293191Y-49156684D01*
X125246493Y-49212911D01*
X125241172Y-49219007D01*
X125234199Y-49226731D01*
X125225194Y-49236359D01*
X125214583Y-49247463D01*
X125202790Y-49259616D01*
X125190242Y-49272388D01*
X125177362Y-49285354D01*
X125164577Y-49298084D01*
X125152311Y-49310152D01*
X125140989Y-49321130D01*
X125131038Y-49330590D01*
X125122881Y-49338105D01*
X125121929Y-49338957D01*
X125066972Y-49385731D01*
X125010301Y-49429623D01*
X124951991Y-49470600D01*
X124892114Y-49508628D01*
X124830744Y-49543672D01*
X124767955Y-49575699D01*
X124703818Y-49604676D01*
X124638409Y-49630568D01*
X124571800Y-49653342D01*
X124504064Y-49672964D01*
X124435276Y-49689400D01*
X124365508Y-49702616D01*
X124316427Y-49709895D01*
X124272577Y-49714929D01*
X124227122Y-49718756D01*
X124180968Y-49721340D01*
X124135025Y-49722645D01*
X124090198Y-49722635D01*
X124047396Y-49721273D01*
X124040413Y-49720906D01*
X123968600Y-49715239D01*
X123897615Y-49706314D01*
X123827538Y-49694168D01*
X123758449Y-49678837D01*
X123690429Y-49660355D01*
X123623558Y-49638760D01*
X123557917Y-49614087D01*
X123493585Y-49586372D01*
X123430643Y-49555650D01*
X123369172Y-49521957D01*
X123309251Y-49485330D01*
X123250961Y-49445805D01*
X123194382Y-49403416D01*
X123139595Y-49358200D01*
X123086679Y-49310193D01*
X123058280Y-49282490D01*
X123009127Y-49230923D01*
X122962665Y-49177346D01*
X122918941Y-49121857D01*
X122878000Y-49064552D01*
X122839888Y-49005529D01*
X122804650Y-48944885D01*
X122772332Y-48882719D01*
X122742980Y-48819128D01*
X122716638Y-48754208D01*
X122693354Y-48688058D01*
X122673171Y-48620775D01*
X122656137Y-48552457D01*
X122642296Y-48483200D01*
X122631694Y-48413103D01*
X122625706Y-48357947D01*
X122621880Y-48302973D01*
X122620080Y-48246359D01*
X122620296Y-48189099D01*
X122622517Y-48132185D01*
X122626732Y-48076611D01*
X122629084Y-48053993D01*
X122638717Y-47983612D01*
X122651632Y-47913983D01*
X122667784Y-47845210D01*
X122687131Y-47777394D01*
X122709632Y-47710638D01*
X122735242Y-47645043D01*
X122763920Y-47580713D01*
X122795622Y-47517748D01*
X122830306Y-47456252D01*
X122867930Y-47396326D01*
X122908450Y-47338073D01*
X122951824Y-47281595D01*
X122951886Y-47281518D01*
X122986184Y-47240689D01*
X123023142Y-47199878D01*
X123062097Y-47159755D01*
X123102385Y-47120987D01*
X123143343Y-47084244D01*
X123169598Y-47062103D01*
X123225103Y-47018657D01*
X123282390Y-46978053D01*
X123341348Y-46940321D01*
X123401868Y-46905493D01*
X123463839Y-46873602D01*
X123527150Y-46844679D01*
X123591692Y-46818756D01*
X123657354Y-46795866D01*
X123724026Y-46776039D01*
X123791597Y-46759309D01*
X123859958Y-46745706D01*
X123928997Y-46735264D01*
X123998604Y-46728013D01*
X124068670Y-46723986D01*
X124139083Y-46723214D01*
X124209734Y-46725731D01*
G37*
X124209734Y-46725731D02*
X124280511Y-46731566D01*
X124302880Y-46734105D01*
X124372490Y-46744228D01*
X124441500Y-46757667D01*
X124509814Y-46774386D01*
X124577338Y-46794352D01*
X124643976Y-46817531D01*
X124709632Y-46843889D01*
X124774212Y-46873393D01*
X124837622Y-46906008D01*
X124899764Y-46941700D01*
X124919700Y-46953975D01*
X124974930Y-46990461D01*
X125028979Y-47029966D01*
X125081617Y-47072258D01*
X125132610Y-47117105D01*
X125181726Y-47164276D01*
X125228735Y-47213537D01*
X125273403Y-47264659D01*
X125315500Y-47317407D01*
X125354792Y-47371551D01*
X125388505Y-47422780D01*
X125421400Y-47477861D01*
X125452179Y-47534552D01*
X125480522Y-47592215D01*
X125506112Y-47650210D01*
X125522580Y-47691620D01*
X125545974Y-47758083D01*
X125566154Y-47825500D01*
X125583111Y-47893735D01*
X125596839Y-47962653D01*
X125607328Y-48032119D01*
X125614571Y-48101997D01*
X125618560Y-48172153D01*
X125619288Y-48242449D01*
X125616746Y-48312753D01*
X125610927Y-48382927D01*
X125601823Y-48452837D01*
X125589426Y-48522347D01*
X125574503Y-48588240D01*
X125555568Y-48657005D01*
X125533559Y-48724358D01*
X125508473Y-48790303D01*
X125480306Y-48854846D01*
X125449058Y-48917990D01*
X125414725Y-48979741D01*
X125377305Y-49040104D01*
X125336794Y-49099083D01*
X125293191Y-49156684D01*
X125246493Y-49212911D01*
X125241172Y-49219007D01*
X125234199Y-49226731D01*
X125225194Y-49236359D01*
X125214583Y-49247463D01*
X125202790Y-49259616D01*
X125190242Y-49272388D01*
X125177362Y-49285354D01*
X125164577Y-49298084D01*
X125152311Y-49310152D01*
X125140989Y-49321130D01*
X125131038Y-49330590D01*
X125122881Y-49338105D01*
X125121929Y-49338957D01*
X125066972Y-49385731D01*
X125010301Y-49429623D01*
X124951991Y-49470600D01*
X124892114Y-49508628D01*
X124830744Y-49543672D01*
X124767955Y-49575699D01*
X124703818Y-49604676D01*
X124638409Y-49630568D01*
X124571800Y-49653342D01*
X124504064Y-49672964D01*
X124435276Y-49689400D01*
X124365508Y-49702616D01*
X124316427Y-49709895D01*
X124272577Y-49714929D01*
X124227122Y-49718756D01*
X124180968Y-49721340D01*
X124135025Y-49722645D01*
X124090198Y-49722635D01*
X124047396Y-49721273D01*
X124040413Y-49720906D01*
X123968600Y-49715239D01*
X123897615Y-49706314D01*
X123827538Y-49694168D01*
X123758449Y-49678837D01*
X123690429Y-49660355D01*
X123623558Y-49638760D01*
X123557917Y-49614087D01*
X123493585Y-49586372D01*
X123430643Y-49555650D01*
X123369172Y-49521957D01*
X123309251Y-49485330D01*
X123250961Y-49445805D01*
X123194382Y-49403416D01*
X123139595Y-49358200D01*
X123086679Y-49310193D01*
X123058280Y-49282490D01*
X123009127Y-49230923D01*
X122962665Y-49177346D01*
X122918941Y-49121857D01*
X122878000Y-49064552D01*
X122839888Y-49005529D01*
X122804650Y-48944885D01*
X122772332Y-48882719D01*
X122742980Y-48819128D01*
X122716638Y-48754208D01*
X122693354Y-48688058D01*
X122673171Y-48620775D01*
X122656137Y-48552457D01*
X122642296Y-48483200D01*
X122631694Y-48413103D01*
X122625706Y-48357947D01*
X122621880Y-48302973D01*
X122620080Y-48246359D01*
X122620296Y-48189099D01*
X122622517Y-48132185D01*
X122626732Y-48076611D01*
X122629084Y-48053993D01*
X122638717Y-47983612D01*
X122651632Y-47913983D01*
X122667784Y-47845210D01*
X122687131Y-47777394D01*
X122709632Y-47710638D01*
X122735242Y-47645043D01*
X122763920Y-47580713D01*
X122795622Y-47517748D01*
X122830306Y-47456252D01*
X122867930Y-47396326D01*
X122908450Y-47338073D01*
X122951824Y-47281595D01*
X122951886Y-47281518D01*
X122986184Y-47240689D01*
X123023142Y-47199878D01*
X123062097Y-47159755D01*
X123102385Y-47120987D01*
X123143343Y-47084244D01*
X123169598Y-47062103D01*
X123225103Y-47018657D01*
X123282390Y-46978053D01*
X123341348Y-46940321D01*
X123401868Y-46905493D01*
X123463839Y-46873602D01*
X123527150Y-46844679D01*
X123591692Y-46818756D01*
X123657354Y-46795866D01*
X123724026Y-46776039D01*
X123791597Y-46759309D01*
X123859958Y-46745706D01*
X123928997Y-46735264D01*
X123998604Y-46728013D01*
X124068670Y-46723986D01*
X124139083Y-46723214D01*
X124209734Y-46725731D01*
G36*
X127521212Y-46724595D02*
G01*
X127590541Y-46729348D01*
X127659623Y-46737300D01*
X127728342Y-46748448D01*
X127796579Y-46762790D01*
X127864217Y-46780325D01*
X127931139Y-46801052D01*
X127997226Y-46824967D01*
X128062361Y-46852069D01*
X128108647Y-46873575D01*
X128171318Y-46905878D01*
X128232219Y-46941024D01*
X128291264Y-46978923D01*
X128348370Y-47019482D01*
X128403450Y-47062607D01*
X128456421Y-47108205D01*
X128507196Y-47156185D01*
X128555692Y-47206454D01*
X128601824Y-47258918D01*
X128645506Y-47313485D01*
X128686653Y-47370063D01*
X128725181Y-47428558D01*
X128761005Y-47488878D01*
X128794039Y-47550930D01*
X128824200Y-47614621D01*
X128851401Y-47679860D01*
X128854633Y-47688233D01*
X128878169Y-47754478D01*
X128898480Y-47821620D01*
X128915567Y-47889529D01*
X128929431Y-47958074D01*
X128940072Y-48027124D01*
X128947492Y-48096548D01*
X128951693Y-48166215D01*
X128952674Y-48235993D01*
X128950438Y-48305753D01*
X128944986Y-48375362D01*
X128936318Y-48444690D01*
X128924436Y-48513606D01*
X128909340Y-48581978D01*
X128891033Y-48649677D01*
X128869515Y-48716570D01*
X128845288Y-48781280D01*
X128837515Y-48800426D01*
X128830337Y-48817575D01*
X128823372Y-48833565D01*
X128816238Y-48849235D01*
X128808555Y-48865424D01*
X128799941Y-48882973D01*
X128791059Y-48900660D01*
X128757599Y-48963032D01*
X128721258Y-49023681D01*
X128682127Y-49082499D01*
X128640296Y-49139379D01*
X128595856Y-49194212D01*
X128548897Y-49246890D01*
X128499510Y-49297305D01*
X128447784Y-49345349D01*
X128393811Y-49390914D01*
X128355873Y-49420426D01*
X128315153Y-49450179D01*
X128275264Y-49477487D01*
X128235386Y-49502864D01*
X128194697Y-49526821D01*
X128152377Y-49549871D01*
X128130660Y-49561059D01*
X128090437Y-49580791D01*
X128051545Y-49598540D01*
X128012945Y-49614744D01*
X127973602Y-49629841D01*
X127941007Y-49641379D01*
X127876632Y-49661895D01*
X127812390Y-49679326D01*
X127747858Y-49693753D01*
X127682614Y-49705258D01*
X127616235Y-49713922D01*
X127548300Y-49719826D01*
X127527833Y-49721057D01*
X127514480Y-49721621D01*
X127498474Y-49722038D01*
X127480544Y-49722309D01*
X127461422Y-49722434D01*
X127441836Y-49722414D01*
X127422517Y-49722251D01*
X127404196Y-49721944D01*
X127387601Y-49721495D01*
X127373464Y-49720905D01*
X127372893Y-49720875D01*
X127302456Y-49715441D01*
X127232495Y-49706696D01*
X127163137Y-49694687D01*
X127094505Y-49679462D01*
X127026724Y-49661069D01*
X126959919Y-49639554D01*
X126894215Y-49614965D01*
X126829737Y-49587351D01*
X126766609Y-49556757D01*
X126704956Y-49523233D01*
X126644903Y-49486825D01*
X126586575Y-49447581D01*
X126530096Y-49405548D01*
X126516406Y-49394711D01*
X126461881Y-49348885D01*
X126409892Y-49300869D01*
X126360480Y-49250761D01*
X126313684Y-49198662D01*
X126269545Y-49144670D01*
X126228104Y-49088883D01*
X126189401Y-49031403D01*
X126153476Y-48972326D01*
X126120370Y-48911754D01*
X126090123Y-48849784D01*
X126062776Y-48786515D01*
X126038369Y-48722048D01*
X126016942Y-48656481D01*
X125998536Y-48589914D01*
X125983192Y-48522444D01*
X125970949Y-48454173D01*
X125961848Y-48385198D01*
X125955929Y-48315618D01*
X125953234Y-48245534D01*
X125953801Y-48175044D01*
X125957672Y-48104247D01*
X125964105Y-48039600D01*
X125974253Y-47969774D01*
X125987706Y-47900633D01*
X126004440Y-47832245D01*
X126024428Y-47764684D01*
X126047647Y-47698018D01*
X126074070Y-47632318D01*
X126103673Y-47567656D01*
X126136430Y-47504102D01*
X126172317Y-47441727D01*
X126183986Y-47422780D01*
X126220175Y-47367960D01*
X126259397Y-47314255D01*
X126301410Y-47261904D01*
X126345975Y-47211147D01*
X126392852Y-47162225D01*
X126441800Y-47115377D01*
X126492579Y-47070844D01*
X126544949Y-47028866D01*
X126598671Y-46989682D01*
X126652780Y-46953986D01*
X126683531Y-46935293D01*
X126715858Y-46916656D01*
X126748919Y-46898525D01*
X126781871Y-46881353D01*
X126813873Y-46865593D01*
X126840279Y-46853383D01*
X126905597Y-46826050D01*
X126971846Y-46801934D01*
X127038907Y-46781033D01*
X127106664Y-46763346D01*
X127174998Y-46748869D01*
X127243791Y-46737603D01*
X127312928Y-46729544D01*
X127382288Y-46724691D01*
X127451756Y-46723042D01*
X127521212Y-46724595D01*
G37*
X127521212Y-46724595D02*
X127590541Y-46729348D01*
X127659623Y-46737300D01*
X127728342Y-46748448D01*
X127796579Y-46762790D01*
X127864217Y-46780325D01*
X127931139Y-46801052D01*
X127997226Y-46824967D01*
X128062361Y-46852069D01*
X128108647Y-46873575D01*
X128171318Y-46905878D01*
X128232219Y-46941024D01*
X128291264Y-46978923D01*
X128348370Y-47019482D01*
X128403450Y-47062607D01*
X128456421Y-47108205D01*
X128507196Y-47156185D01*
X128555692Y-47206454D01*
X128601824Y-47258918D01*
X128645506Y-47313485D01*
X128686653Y-47370063D01*
X128725181Y-47428558D01*
X128761005Y-47488878D01*
X128794039Y-47550930D01*
X128824200Y-47614621D01*
X128851401Y-47679860D01*
X128854633Y-47688233D01*
X128878169Y-47754478D01*
X128898480Y-47821620D01*
X128915567Y-47889529D01*
X128929431Y-47958074D01*
X128940072Y-48027124D01*
X128947492Y-48096548D01*
X128951693Y-48166215D01*
X128952674Y-48235993D01*
X128950438Y-48305753D01*
X128944986Y-48375362D01*
X128936318Y-48444690D01*
X128924436Y-48513606D01*
X128909340Y-48581978D01*
X128891033Y-48649677D01*
X128869515Y-48716570D01*
X128845288Y-48781280D01*
X128837515Y-48800426D01*
X128830337Y-48817575D01*
X128823372Y-48833565D01*
X128816238Y-48849235D01*
X128808555Y-48865424D01*
X128799941Y-48882973D01*
X128791059Y-48900660D01*
X128757599Y-48963032D01*
X128721258Y-49023681D01*
X128682127Y-49082499D01*
X128640296Y-49139379D01*
X128595856Y-49194212D01*
X128548897Y-49246890D01*
X128499510Y-49297305D01*
X128447784Y-49345349D01*
X128393811Y-49390914D01*
X128355873Y-49420426D01*
X128315153Y-49450179D01*
X128275264Y-49477487D01*
X128235386Y-49502864D01*
X128194697Y-49526821D01*
X128152377Y-49549871D01*
X128130660Y-49561059D01*
X128090437Y-49580791D01*
X128051545Y-49598540D01*
X128012945Y-49614744D01*
X127973602Y-49629841D01*
X127941007Y-49641379D01*
X127876632Y-49661895D01*
X127812390Y-49679326D01*
X127747858Y-49693753D01*
X127682614Y-49705258D01*
X127616235Y-49713922D01*
X127548300Y-49719826D01*
X127527833Y-49721057D01*
X127514480Y-49721621D01*
X127498474Y-49722038D01*
X127480544Y-49722309D01*
X127461422Y-49722434D01*
X127441836Y-49722414D01*
X127422517Y-49722251D01*
X127404196Y-49721944D01*
X127387601Y-49721495D01*
X127373464Y-49720905D01*
X127372893Y-49720875D01*
X127302456Y-49715441D01*
X127232495Y-49706696D01*
X127163137Y-49694687D01*
X127094505Y-49679462D01*
X127026724Y-49661069D01*
X126959919Y-49639554D01*
X126894215Y-49614965D01*
X126829737Y-49587351D01*
X126766609Y-49556757D01*
X126704956Y-49523233D01*
X126644903Y-49486825D01*
X126586575Y-49447581D01*
X126530096Y-49405548D01*
X126516406Y-49394711D01*
X126461881Y-49348885D01*
X126409892Y-49300869D01*
X126360480Y-49250761D01*
X126313684Y-49198662D01*
X126269545Y-49144670D01*
X126228104Y-49088883D01*
X126189401Y-49031403D01*
X126153476Y-48972326D01*
X126120370Y-48911754D01*
X126090123Y-48849784D01*
X126062776Y-48786515D01*
X126038369Y-48722048D01*
X126016942Y-48656481D01*
X125998536Y-48589914D01*
X125983192Y-48522444D01*
X125970949Y-48454173D01*
X125961848Y-48385198D01*
X125955929Y-48315618D01*
X125953234Y-48245534D01*
X125953801Y-48175044D01*
X125957672Y-48104247D01*
X125964105Y-48039600D01*
X125974253Y-47969774D01*
X125987706Y-47900633D01*
X126004440Y-47832245D01*
X126024428Y-47764684D01*
X126047647Y-47698018D01*
X126074070Y-47632318D01*
X126103673Y-47567656D01*
X126136430Y-47504102D01*
X126172317Y-47441727D01*
X126183986Y-47422780D01*
X126220175Y-47367960D01*
X126259397Y-47314255D01*
X126301410Y-47261904D01*
X126345975Y-47211147D01*
X126392852Y-47162225D01*
X126441800Y-47115377D01*
X126492579Y-47070844D01*
X126544949Y-47028866D01*
X126598671Y-46989682D01*
X126652780Y-46953986D01*
X126683531Y-46935293D01*
X126715858Y-46916656D01*
X126748919Y-46898525D01*
X126781871Y-46881353D01*
X126813873Y-46865593D01*
X126840279Y-46853383D01*
X126905597Y-46826050D01*
X126971846Y-46801934D01*
X127038907Y-46781033D01*
X127106664Y-46763346D01*
X127174998Y-46748869D01*
X127243791Y-46737603D01*
X127312928Y-46729544D01*
X127382288Y-46724691D01*
X127451756Y-46723042D01*
X127521212Y-46724595D01*
G36*
X127530048Y-43391644D02*
G01*
X127587947Y-43395706D01*
X127658726Y-43403754D01*
X127728659Y-43415057D01*
X127797660Y-43429569D01*
X127865642Y-43447245D01*
X127932520Y-43468040D01*
X127998207Y-43491908D01*
X128062616Y-43518803D01*
X128125662Y-43548680D01*
X128187259Y-43581495D01*
X128247320Y-43617200D01*
X128305759Y-43655752D01*
X128362490Y-43697103D01*
X128417427Y-43741210D01*
X128470483Y-43788026D01*
X128521573Y-43837507D01*
X128570610Y-43889606D01*
X128609159Y-43934166D01*
X128652595Y-43988960D01*
X128693288Y-44045678D01*
X128731196Y-44104198D01*
X128766272Y-44164397D01*
X128798475Y-44226153D01*
X128827759Y-44289343D01*
X128854080Y-44353844D01*
X128877395Y-44419535D01*
X128897658Y-44486292D01*
X128914827Y-44553993D01*
X128928857Y-44622515D01*
X128939703Y-44691735D01*
X128947322Y-44761532D01*
X128951670Y-44831783D01*
X128952763Y-44889153D01*
X128951079Y-44960549D01*
X128946071Y-45031467D01*
X128937769Y-45101811D01*
X128926203Y-45171480D01*
X128911402Y-45240379D01*
X128893396Y-45308407D01*
X128872215Y-45375468D01*
X128847888Y-45441463D01*
X128820445Y-45506294D01*
X128789916Y-45569863D01*
X128756330Y-45632071D01*
X128719716Y-45692821D01*
X128701950Y-45720122D01*
X128665742Y-45772136D01*
X128627574Y-45822347D01*
X128586857Y-45871519D01*
X128568957Y-45891929D01*
X128561741Y-45899808D01*
X128552522Y-45909539D01*
X128541726Y-45920699D01*
X128529782Y-45932861D01*
X128517116Y-45945600D01*
X128504158Y-45958492D01*
X128491334Y-45971111D01*
X128479071Y-45983032D01*
X128467799Y-45993829D01*
X128457944Y-46003079D01*
X128449934Y-46010355D01*
X128449007Y-46011172D01*
X128392930Y-46058211D01*
X128335481Y-46102153D01*
X128276653Y-46143004D01*
X128216443Y-46180764D01*
X128154845Y-46215436D01*
X128091854Y-46247023D01*
X128027465Y-46275528D01*
X127961674Y-46300952D01*
X127894477Y-46323300D01*
X127825867Y-46342572D01*
X127818240Y-46344503D01*
X127763166Y-46357255D01*
X127708568Y-46367754D01*
X127653728Y-46376099D01*
X127597926Y-46382391D01*
X127540443Y-46386730D01*
X127501099Y-46388577D01*
X127487038Y-46389082D01*
X127475481Y-46389469D01*
X127465738Y-46389737D01*
X127457121Y-46389885D01*
X127448940Y-46389914D01*
X127440508Y-46389824D01*
X127431134Y-46389613D01*
X127420130Y-46389281D01*
X127406808Y-46388829D01*
X127398293Y-46388531D01*
X127327418Y-46384355D01*
X127257064Y-46376847D01*
X127187312Y-46366030D01*
X127118243Y-46351930D01*
X127049936Y-46334572D01*
X126982473Y-46313979D01*
X126915932Y-46290177D01*
X126850396Y-46263192D01*
X126785944Y-46233046D01*
X126722656Y-46199766D01*
X126660613Y-46163377D01*
X126652780Y-46158505D01*
X126597802Y-46122197D01*
X126543911Y-46082849D01*
X126491373Y-46040703D01*
X126440453Y-45996004D01*
X126391415Y-45948996D01*
X126344524Y-45899923D01*
X126300045Y-45849028D01*
X126258244Y-45796556D01*
X126254573Y-45791700D01*
X126213483Y-45734319D01*
X126175062Y-45674980D01*
X126139432Y-45613901D01*
X126106713Y-45551302D01*
X126077025Y-45487400D01*
X126050489Y-45422413D01*
X126049782Y-45420552D01*
X126026393Y-45354112D01*
X126006229Y-45286756D01*
X125989295Y-45218613D01*
X125975596Y-45149812D01*
X125965135Y-45080483D01*
X125957917Y-45010754D01*
X125953946Y-44940756D01*
X125953227Y-44870617D01*
X125955763Y-44800466D01*
X125961560Y-44730433D01*
X125970621Y-44660647D01*
X125982951Y-44591238D01*
X125998554Y-44522334D01*
X126017435Y-44454064D01*
X126017464Y-44453967D01*
X126039631Y-44386421D01*
X126064862Y-44320316D01*
X126093152Y-44255660D01*
X126124495Y-44192464D01*
X126158885Y-44130738D01*
X126196318Y-44070492D01*
X126236787Y-44011736D01*
X126280287Y-43954480D01*
X126326812Y-43898734D01*
X126331319Y-43893595D01*
X126340589Y-43883346D01*
X126351875Y-43871308D01*
X126364717Y-43857941D01*
X126378653Y-43843704D01*
X126393221Y-43829058D01*
X126407959Y-43814462D01*
X126422404Y-43800376D01*
X126436096Y-43787259D01*
X126448572Y-43775572D01*
X126459371Y-43765775D01*
X126462412Y-43763101D01*
X126518394Y-43716511D01*
X126575865Y-43672958D01*
X126634817Y-43632447D01*
X126695241Y-43594982D01*
X126757131Y-43560567D01*
X126820478Y-43529207D01*
X126885273Y-43500906D01*
X126951510Y-43475668D01*
X127019179Y-43453498D01*
X127043801Y-43446293D01*
X127111329Y-43428891D01*
X127179890Y-43414650D01*
X127249252Y-43403594D01*
X127319182Y-43395744D01*
X127389447Y-43391121D01*
X127459813Y-43389747D01*
X127530048Y-43391644D01*
G37*
X127530048Y-43391644D02*
X127587947Y-43395706D01*
X127658726Y-43403754D01*
X127728659Y-43415057D01*
X127797660Y-43429569D01*
X127865642Y-43447245D01*
X127932520Y-43468040D01*
X127998207Y-43491908D01*
X128062616Y-43518803D01*
X128125662Y-43548680D01*
X128187259Y-43581495D01*
X128247320Y-43617200D01*
X128305759Y-43655752D01*
X128362490Y-43697103D01*
X128417427Y-43741210D01*
X128470483Y-43788026D01*
X128521573Y-43837507D01*
X128570610Y-43889606D01*
X128609159Y-43934166D01*
X128652595Y-43988960D01*
X128693288Y-44045678D01*
X128731196Y-44104198D01*
X128766272Y-44164397D01*
X128798475Y-44226153D01*
X128827759Y-44289343D01*
X128854080Y-44353844D01*
X128877395Y-44419535D01*
X128897658Y-44486292D01*
X128914827Y-44553993D01*
X128928857Y-44622515D01*
X128939703Y-44691735D01*
X128947322Y-44761532D01*
X128951670Y-44831783D01*
X128952763Y-44889153D01*
X128951079Y-44960549D01*
X128946071Y-45031467D01*
X128937769Y-45101811D01*
X128926203Y-45171480D01*
X128911402Y-45240379D01*
X128893396Y-45308407D01*
X128872215Y-45375468D01*
X128847888Y-45441463D01*
X128820445Y-45506294D01*
X128789916Y-45569863D01*
X128756330Y-45632071D01*
X128719716Y-45692821D01*
X128701950Y-45720122D01*
X128665742Y-45772136D01*
X128627574Y-45822347D01*
X128586857Y-45871519D01*
X128568957Y-45891929D01*
X128561741Y-45899808D01*
X128552522Y-45909539D01*
X128541726Y-45920699D01*
X128529782Y-45932861D01*
X128517116Y-45945600D01*
X128504158Y-45958492D01*
X128491334Y-45971111D01*
X128479071Y-45983032D01*
X128467799Y-45993829D01*
X128457944Y-46003079D01*
X128449934Y-46010355D01*
X128449007Y-46011172D01*
X128392930Y-46058211D01*
X128335481Y-46102153D01*
X128276653Y-46143004D01*
X128216443Y-46180764D01*
X128154845Y-46215436D01*
X128091854Y-46247023D01*
X128027465Y-46275528D01*
X127961674Y-46300952D01*
X127894477Y-46323300D01*
X127825867Y-46342572D01*
X127818240Y-46344503D01*
X127763166Y-46357255D01*
X127708568Y-46367754D01*
X127653728Y-46376099D01*
X127597926Y-46382391D01*
X127540443Y-46386730D01*
X127501099Y-46388577D01*
X127487038Y-46389082D01*
X127475481Y-46389469D01*
X127465738Y-46389737D01*
X127457121Y-46389885D01*
X127448940Y-46389914D01*
X127440508Y-46389824D01*
X127431134Y-46389613D01*
X127420130Y-46389281D01*
X127406808Y-46388829D01*
X127398293Y-46388531D01*
X127327418Y-46384355D01*
X127257064Y-46376847D01*
X127187312Y-46366030D01*
X127118243Y-46351930D01*
X127049936Y-46334572D01*
X126982473Y-46313979D01*
X126915932Y-46290177D01*
X126850396Y-46263192D01*
X126785944Y-46233046D01*
X126722656Y-46199766D01*
X126660613Y-46163377D01*
X126652780Y-46158505D01*
X126597802Y-46122197D01*
X126543911Y-46082849D01*
X126491373Y-46040703D01*
X126440453Y-45996004D01*
X126391415Y-45948996D01*
X126344524Y-45899923D01*
X126300045Y-45849028D01*
X126258244Y-45796556D01*
X126254573Y-45791700D01*
X126213483Y-45734319D01*
X126175062Y-45674980D01*
X126139432Y-45613901D01*
X126106713Y-45551302D01*
X126077025Y-45487400D01*
X126050489Y-45422413D01*
X126049782Y-45420552D01*
X126026393Y-45354112D01*
X126006229Y-45286756D01*
X125989295Y-45218613D01*
X125975596Y-45149812D01*
X125965135Y-45080483D01*
X125957917Y-45010754D01*
X125953946Y-44940756D01*
X125953227Y-44870617D01*
X125955763Y-44800466D01*
X125961560Y-44730433D01*
X125970621Y-44660647D01*
X125982951Y-44591238D01*
X125998554Y-44522334D01*
X126017435Y-44454064D01*
X126017464Y-44453967D01*
X126039631Y-44386421D01*
X126064862Y-44320316D01*
X126093152Y-44255660D01*
X126124495Y-44192464D01*
X126158885Y-44130738D01*
X126196318Y-44070492D01*
X126236787Y-44011736D01*
X126280287Y-43954480D01*
X126326812Y-43898734D01*
X126331319Y-43893595D01*
X126340589Y-43883346D01*
X126351875Y-43871308D01*
X126364717Y-43857941D01*
X126378653Y-43843704D01*
X126393221Y-43829058D01*
X126407959Y-43814462D01*
X126422404Y-43800376D01*
X126436096Y-43787259D01*
X126448572Y-43775572D01*
X126459371Y-43765775D01*
X126462412Y-43763101D01*
X126518394Y-43716511D01*
X126575865Y-43672958D01*
X126634817Y-43632447D01*
X126695241Y-43594982D01*
X126757131Y-43560567D01*
X126820478Y-43529207D01*
X126885273Y-43500906D01*
X126951510Y-43475668D01*
X127019179Y-43453498D01*
X127043801Y-43446293D01*
X127111329Y-43428891D01*
X127179890Y-43414650D01*
X127249252Y-43403594D01*
X127319182Y-43395744D01*
X127389447Y-43391121D01*
X127459813Y-43389747D01*
X127530048Y-43391644D01*
G36*
X124209981Y-40059088D02*
G01*
X124280802Y-40064944D01*
X124302880Y-40067452D01*
X124372240Y-40077544D01*
X124441097Y-40090954D01*
X124509314Y-40107633D01*
X124576752Y-40127532D01*
X124643273Y-40150602D01*
X124708740Y-40176794D01*
X124773013Y-40206060D01*
X124835956Y-40238349D01*
X124897429Y-40273614D01*
X124915471Y-40284708D01*
X124973433Y-40322891D01*
X125029734Y-40363950D01*
X125084215Y-40407728D01*
X125136719Y-40454069D01*
X125187089Y-40502813D01*
X125235167Y-40553805D01*
X125280796Y-40606887D01*
X125323818Y-40661900D01*
X125364076Y-40718689D01*
X125391118Y-40760356D01*
X125420914Y-40810267D01*
X125449202Y-40862073D01*
X125475588Y-40914986D01*
X125499681Y-40968214D01*
X125521090Y-41020969D01*
X125522876Y-41025679D01*
X125546355Y-41092725D01*
X125566577Y-41160596D01*
X125583539Y-41229172D01*
X125597236Y-41298335D01*
X125607665Y-41367965D01*
X125614821Y-41437943D01*
X125618701Y-41508151D01*
X125619301Y-41578470D01*
X125616616Y-41648779D01*
X125610643Y-41718961D01*
X125601378Y-41788897D01*
X125588816Y-41858466D01*
X125572955Y-41927552D01*
X125555057Y-41991860D01*
X125533014Y-42058937D01*
X125507839Y-42124793D01*
X125479600Y-42189320D01*
X125448364Y-42252410D01*
X125414197Y-42313957D01*
X125377167Y-42373853D01*
X125337341Y-42431992D01*
X125294785Y-42488266D01*
X125249567Y-42542569D01*
X125201752Y-42594792D01*
X125151409Y-42644829D01*
X125141338Y-42654290D01*
X125088236Y-42701429D01*
X125033144Y-42745871D01*
X124976170Y-42787565D01*
X124917424Y-42826458D01*
X124857011Y-42862499D01*
X124795042Y-42895635D01*
X124731623Y-42925815D01*
X124666862Y-42952986D01*
X124600869Y-42977097D01*
X124533750Y-42998094D01*
X124465614Y-43015927D01*
X124396570Y-43030544D01*
X124340980Y-43039852D01*
X124322283Y-43042450D01*
X124301295Y-43045078D01*
X124279106Y-43047613D01*
X124256808Y-43049933D01*
X124235493Y-43051917D01*
X124224987Y-43052789D01*
X124216313Y-43053322D01*
X124204781Y-43053803D01*
X124190919Y-43054228D01*
X124175255Y-43054590D01*
X124158316Y-43054886D01*
X124140631Y-43055111D01*
X124122728Y-43055260D01*
X124105134Y-43055329D01*
X124088378Y-43055312D01*
X124072988Y-43055206D01*
X124059492Y-43055005D01*
X124048417Y-43054705D01*
X124042107Y-43054417D01*
X123973954Y-43049101D01*
X123907614Y-43041164D01*
X123842658Y-43030521D01*
X123778659Y-43017091D01*
X123715186Y-43000790D01*
X123651810Y-42981534D01*
X123631473Y-42974732D01*
X123565606Y-42950435D01*
X123500996Y-42923019D01*
X123437749Y-42892551D01*
X123375971Y-42859098D01*
X123315771Y-42822726D01*
X123257253Y-42783503D01*
X123200526Y-42741494D01*
X123145695Y-42696768D01*
X123092867Y-42649390D01*
X123059138Y-42616688D01*
X123009895Y-42565079D01*
X122963353Y-42511475D01*
X122919556Y-42455970D01*
X122878550Y-42398660D01*
X122840378Y-42339641D01*
X122805087Y-42279008D01*
X122772720Y-42216857D01*
X122743323Y-42153283D01*
X122716940Y-42088382D01*
X122693616Y-42022249D01*
X122673395Y-41954980D01*
X122656323Y-41886671D01*
X122642444Y-41817417D01*
X122631803Y-41747313D01*
X122625706Y-41691293D01*
X122621880Y-41636320D01*
X122620080Y-41579706D01*
X122620296Y-41522445D01*
X122622517Y-41465531D01*
X122626732Y-41409957D01*
X122629084Y-41387340D01*
X122638718Y-41316951D01*
X122651633Y-41247317D01*
X122667785Y-41178541D01*
X122687133Y-41110723D01*
X122709634Y-41043966D01*
X122735245Y-40978371D01*
X122763924Y-40914041D01*
X122795628Y-40851076D01*
X122830315Y-40789579D01*
X122867942Y-40729652D01*
X122908467Y-40671395D01*
X122951848Y-40614912D01*
X122951886Y-40614865D01*
X122986003Y-40574245D01*
X123022770Y-40533624D01*
X123061522Y-40493675D01*
X123101589Y-40455071D01*
X123142305Y-40418485D01*
X123169419Y-40395597D01*
X123224978Y-40352107D01*
X123282311Y-40311463D01*
X123341308Y-40273698D01*
X123401859Y-40238844D01*
X123463856Y-40206930D01*
X123527190Y-40177991D01*
X123591750Y-40152056D01*
X123657428Y-40129158D01*
X123724115Y-40109328D01*
X123791701Y-40092598D01*
X123860076Y-40079000D01*
X123929133Y-40068565D01*
X123998761Y-40061324D01*
X124068851Y-40057311D01*
X124139294Y-40056555D01*
X124209981Y-40059088D01*
G37*
X124209981Y-40059088D02*
X124280802Y-40064944D01*
X124302880Y-40067452D01*
X124372240Y-40077544D01*
X124441097Y-40090954D01*
X124509314Y-40107633D01*
X124576752Y-40127532D01*
X124643273Y-40150602D01*
X124708740Y-40176794D01*
X124773013Y-40206060D01*
X124835956Y-40238349D01*
X124897429Y-40273614D01*
X124915471Y-40284708D01*
X124973433Y-40322891D01*
X125029734Y-40363950D01*
X125084215Y-40407728D01*
X125136719Y-40454069D01*
X125187089Y-40502813D01*
X125235167Y-40553805D01*
X125280796Y-40606887D01*
X125323818Y-40661900D01*
X125364076Y-40718689D01*
X125391118Y-40760356D01*
X125420914Y-40810267D01*
X125449202Y-40862073D01*
X125475588Y-40914986D01*
X125499681Y-40968214D01*
X125521090Y-41020969D01*
X125522876Y-41025679D01*
X125546355Y-41092725D01*
X125566577Y-41160596D01*
X125583539Y-41229172D01*
X125597236Y-41298335D01*
X125607665Y-41367965D01*
X125614821Y-41437943D01*
X125618701Y-41508151D01*
X125619301Y-41578470D01*
X125616616Y-41648779D01*
X125610643Y-41718961D01*
X125601378Y-41788897D01*
X125588816Y-41858466D01*
X125572955Y-41927552D01*
X125555057Y-41991860D01*
X125533014Y-42058937D01*
X125507839Y-42124793D01*
X125479600Y-42189320D01*
X125448364Y-42252410D01*
X125414197Y-42313957D01*
X125377167Y-42373853D01*
X125337341Y-42431992D01*
X125294785Y-42488266D01*
X125249567Y-42542569D01*
X125201752Y-42594792D01*
X125151409Y-42644829D01*
X125141338Y-42654290D01*
X125088236Y-42701429D01*
X125033144Y-42745871D01*
X124976170Y-42787565D01*
X124917424Y-42826458D01*
X124857011Y-42862499D01*
X124795042Y-42895635D01*
X124731623Y-42925815D01*
X124666862Y-42952986D01*
X124600869Y-42977097D01*
X124533750Y-42998094D01*
X124465614Y-43015927D01*
X124396570Y-43030544D01*
X124340980Y-43039852D01*
X124322283Y-43042450D01*
X124301295Y-43045078D01*
X124279106Y-43047613D01*
X124256808Y-43049933D01*
X124235493Y-43051917D01*
X124224987Y-43052789D01*
X124216313Y-43053322D01*
X124204781Y-43053803D01*
X124190919Y-43054228D01*
X124175255Y-43054590D01*
X124158316Y-43054886D01*
X124140631Y-43055111D01*
X124122728Y-43055260D01*
X124105134Y-43055329D01*
X124088378Y-43055312D01*
X124072988Y-43055206D01*
X124059492Y-43055005D01*
X124048417Y-43054705D01*
X124042107Y-43054417D01*
X123973954Y-43049101D01*
X123907614Y-43041164D01*
X123842658Y-43030521D01*
X123778659Y-43017091D01*
X123715186Y-43000790D01*
X123651810Y-42981534D01*
X123631473Y-42974732D01*
X123565606Y-42950435D01*
X123500996Y-42923019D01*
X123437749Y-42892551D01*
X123375971Y-42859098D01*
X123315771Y-42822726D01*
X123257253Y-42783503D01*
X123200526Y-42741494D01*
X123145695Y-42696768D01*
X123092867Y-42649390D01*
X123059138Y-42616688D01*
X123009895Y-42565079D01*
X122963353Y-42511475D01*
X122919556Y-42455970D01*
X122878550Y-42398660D01*
X122840378Y-42339641D01*
X122805087Y-42279008D01*
X122772720Y-42216857D01*
X122743323Y-42153283D01*
X122716940Y-42088382D01*
X122693616Y-42022249D01*
X122673395Y-41954980D01*
X122656323Y-41886671D01*
X122642444Y-41817417D01*
X122631803Y-41747313D01*
X122625706Y-41691293D01*
X122621880Y-41636320D01*
X122620080Y-41579706D01*
X122620296Y-41522445D01*
X122622517Y-41465531D01*
X122626732Y-41409957D01*
X122629084Y-41387340D01*
X122638718Y-41316951D01*
X122651633Y-41247317D01*
X122667785Y-41178541D01*
X122687133Y-41110723D01*
X122709634Y-41043966D01*
X122735245Y-40978371D01*
X122763924Y-40914041D01*
X122795628Y-40851076D01*
X122830315Y-40789579D01*
X122867942Y-40729652D01*
X122908467Y-40671395D01*
X122951848Y-40614912D01*
X122951886Y-40614865D01*
X122986003Y-40574245D01*
X123022770Y-40533624D01*
X123061522Y-40493675D01*
X123101589Y-40455071D01*
X123142305Y-40418485D01*
X123169419Y-40395597D01*
X123224978Y-40352107D01*
X123282311Y-40311463D01*
X123341308Y-40273698D01*
X123401859Y-40238844D01*
X123463856Y-40206930D01*
X123527190Y-40177991D01*
X123591750Y-40152056D01*
X123657428Y-40129158D01*
X123724115Y-40109328D01*
X123791701Y-40092598D01*
X123860076Y-40079000D01*
X123929133Y-40068565D01*
X123998761Y-40061324D01*
X124068851Y-40057311D01*
X124139294Y-40056555D01*
X124209981Y-40059088D01*
G04 #@! TD*
D13*
G04 #@! TO.P,J1,5*
G04 #@! TO.N,Net-(J1-Pad5)*
X133680000Y-45720000D03*
X145680000Y-45720000D03*
D14*
G04 #@! TO.P,J1,4*
G04 #@! TO.N,GND*
X138430000Y-48580000D03*
G04 #@! TO.P,J1,3*
G04 #@! TO.N,Net-(J1-Pad3)*
X140930000Y-48580000D03*
G04 #@! TO.P,J1,2*
G04 #@! TO.N,Net-(J1-Pad2)*
X140930000Y-50580000D03*
D15*
G04 #@! TO.P,J1,1*
G04 #@! TO.N,+5V*
X138430000Y-50580000D03*
G04 #@! TD*
D14*
G04 #@! TO.P,C1,1*
G04 #@! TO.N,GND*
X158750000Y-58420000D03*
G04 #@! TO.P,C1,2*
G04 #@! TO.N,+5V*
X153750000Y-58420000D03*
G04 #@! TD*
D16*
G04 #@! TO.P,D1,1*
G04 #@! TO.N,Net-(D1-Pad1)*
X137160000Y-63500000D03*
D17*
G04 #@! TO.P,D1,2*
G04 #@! TO.N,+5V*
X138430000Y-63500000D03*
G04 #@! TO.P,D1,3*
G04 #@! TO.N,Net-(D1-Pad3)*
X139700000Y-63500000D03*
G04 #@! TO.P,D1,4*
G04 #@! TO.N,Net-(D1-Pad4)*
X140970000Y-63500000D03*
G04 #@! TD*
D15*
G04 #@! TO.P,IC1,1*
G04 #@! TO.N,+5V*
X152400000Y-63500000D03*
D18*
G04 #@! TO.P,IC1,8*
G04 #@! TO.N,Net-(IC1-Pad8)*
X160020000Y-78740000D03*
G04 #@! TO.P,IC1,2*
G04 #@! TO.N,Net-(IC1-Pad2)*
X152400000Y-66040000D03*
G04 #@! TO.P,IC1,9*
G04 #@! TO.N,Net-(IC1-Pad9)*
X160020000Y-76200000D03*
G04 #@! TO.P,IC1,3*
G04 #@! TO.N,Net-(IC1-Pad3)*
X152400000Y-68580000D03*
G04 #@! TO.P,IC1,10*
G04 #@! TO.N,Net-(IC1-Pad10)*
X160020000Y-73660000D03*
G04 #@! TO.P,IC1,4*
G04 #@! TO.N,Net-(IC1-Pad4)*
X152400000Y-71120000D03*
G04 #@! TO.P,IC1,11*
G04 #@! TO.N,Net-(IC1-Pad11)*
X160020000Y-71120000D03*
G04 #@! TO.P,IC1,5*
G04 #@! TO.N,Net-(IC1-Pad5)*
X152400000Y-73660000D03*
G04 #@! TO.P,IC1,12*
G04 #@! TO.N,Net-(IC1-Pad12)*
X160020000Y-68580000D03*
G04 #@! TO.P,IC1,6*
G04 #@! TO.N,Net-(IC1-Pad6)*
X152400000Y-76200000D03*
G04 #@! TO.P,IC1,13*
G04 #@! TO.N,Net-(IC1-Pad13)*
X160020000Y-66040000D03*
G04 #@! TO.P,IC1,7*
G04 #@! TO.N,Net-(IC1-Pad7)*
X152400000Y-78740000D03*
G04 #@! TO.P,IC1,14*
G04 #@! TO.N,GND*
X160020000Y-63500000D03*
G04 #@! TD*
G04 #@! TO.P,R1,2*
G04 #@! TO.N,Net-(IC1-Pad7)*
X128270000Y-73660000D03*
D14*
G04 #@! TO.P,R1,1*
G04 #@! TO.N,Net-(D1-Pad1)*
X128270000Y-63500000D03*
G04 #@! TD*
G04 #@! TO.P,R2,1*
G04 #@! TO.N,Net-(D1-Pad3)*
X124460000Y-58420000D03*
D18*
G04 #@! TO.P,R2,2*
G04 #@! TO.N,Net-(IC1-Pad6)*
X124460000Y-68580000D03*
G04 #@! TD*
D14*
G04 #@! TO.P,R3,1*
G04 #@! TO.N,Net-(D1-Pad4)*
X120650000Y-55880000D03*
D18*
G04 #@! TO.P,R3,2*
G04 #@! TO.N,Net-(IC1-Pad5)*
X120650000Y-66040000D03*
G04 #@! TD*
D19*
G04 #@! TO.P,RV1,3*
G04 #@! TO.N,GND*
X144620000Y-83820000D03*
G04 #@! TO.P,RV1,2*
G04 #@! TO.N,Net-(IC1-Pad13)*
X139620000Y-83820000D03*
G04 #@! TO.P,RV1,1*
G04 #@! TO.N,+5V*
X134620000Y-83820000D03*
G04 #@! TD*
D20*
G04 #@! TO.N,*
X114300000Y-38100000D02*
X165100000Y-38100000D01*
X165100000Y-38100000D02*
X165100000Y-88900000D01*
X165100000Y-88900000D02*
X114300000Y-88900000D01*
X114300000Y-88900000D02*
X114300000Y-38100000D01*
G04 #@! TD*
M02*
