M48
; DRILL file {KiCad (5.1.10)-1} date 04/20/22 14:38:35
; FORMAT={-:-/ absolute / metric / decimal}
; #@! TF.CreationDate,2022-04-20T14:38:35+01:00
; #@! TF.GenerationSoftware,Kicad,Pcbnew,(5.1.10)-1
; #@! TF.FileFunction,Plated,1,2,PTH
FMAT,2
METRIC
T1C0.800
T2C0.900
T3C0.950
T4C1.300
T5C2.300
%
G90
G05
T1
X120.65Y-55.88
X120.65Y-66.04
X124.46Y-58.42
X124.46Y-68.58
X128.27Y-63.5
X128.27Y-73.66
X152.4Y-63.5
X152.4Y-66.04
X152.4Y-68.58
X152.4Y-71.12
X152.4Y-73.66
X152.4Y-76.2
X152.4Y-78.74
X153.75Y-58.42
X158.75Y-58.42
X160.02Y-63.5
X160.02Y-66.04
X160.02Y-68.58
X160.02Y-71.12
X160.02Y-73.66
X160.02Y-76.2
X160.02Y-78.74
T2
X137.16Y-63.5
X138.43Y-63.5
X139.7Y-63.5
X140.97Y-63.5
T3
X138.43Y-48.58
X138.43Y-50.58
X140.93Y-48.58
X140.93Y-50.58
T4
X134.62Y-83.82
X139.62Y-83.82
X144.62Y-83.82
T5
X133.68Y-45.72
X145.68Y-45.72
T0
M30
