G04 #@! TF.GenerationSoftware,KiCad,Pcbnew,(5.1.9-0-10_14)*
G04 #@! TF.CreationDate,2021-05-28T14:11:11+01:00*
G04 #@! TF.ProjectId,ATtiny84Programmer,41547469-6e79-4383-9450-726f6772616d,rev?*
G04 #@! TF.SameCoordinates,Original*
G04 #@! TF.FileFunction,Copper,L2,Bot*
G04 #@! TF.FilePolarity,Positive*
%FSLAX46Y46*%
G04 Gerber Fmt 4.6, Leading zero omitted, Abs format (unit mm)*
G04 Created by KiCad (PCBNEW (5.1.9-0-10_14)) date 2021-05-28 14:11:11*
%MOMM*%
%LPD*%
G01*
G04 APERTURE LIST*
G04 #@! TA.AperFunction,ComponentPad*
%ADD10O,1.727200X1.727200*%
G04 #@! TD*
G04 #@! TA.AperFunction,ComponentPad*
%ADD11R,1.727200X1.727200*%
G04 #@! TD*
G04 #@! TA.AperFunction,ComponentPad*
%ADD12R,1.200000X1.200000*%
G04 #@! TD*
G04 #@! TA.AperFunction,ComponentPad*
%ADD13C,1.200000*%
G04 #@! TD*
G04 #@! TA.AperFunction,ComponentPad*
%ADD14R,1.800000X1.800000*%
G04 #@! TD*
G04 #@! TA.AperFunction,ComponentPad*
%ADD15C,1.800000*%
G04 #@! TD*
G04 #@! TA.AperFunction,ComponentPad*
%ADD16C,1.600000*%
G04 #@! TD*
G04 #@! TA.AperFunction,ComponentPad*
%ADD17O,1.600000X1.600000*%
G04 #@! TD*
G04 #@! TA.AperFunction,ComponentPad*
%ADD18R,1.600000X1.600000*%
G04 #@! TD*
G04 #@! TA.AperFunction,Conductor*
%ADD19C,1.016000*%
G04 #@! TD*
G04 APERTURE END LIST*
D10*
G04 #@! TO.P,XA1,*
G04 #@! TO.N,*
X115680000Y-92600000D03*
G04 #@! TO.P,XA1,RST2*
G04 #@! TO.N,Net-(XA1-PadRST2)*
X123300000Y-77360000D03*
D11*
G04 #@! TO.P,XA1,MOSI*
G04 #@! TO.N,Net-(U1-Pad7)*
X133460000Y-77360000D03*
D10*
G04 #@! TO.P,XA1,SCK*
G04 #@! TO.N,Net-(U1-Pad9)*
X133460000Y-92600000D03*
G04 #@! TO.P,XA1,A0*
G04 #@! TO.N,Net-(XA1-PadA0)*
X100440000Y-92600000D03*
G04 #@! TO.P,XA1,VIN*
G04 #@! TO.N,Net-(XA1-PadVIN)*
X128380000Y-92600000D03*
G04 #@! TO.P,XA1,GND2*
G04 #@! TO.N,Net-(XA1-PadGND2)*
X120760000Y-77360000D03*
G04 #@! TO.P,XA1,GND1*
G04 #@! TO.N,GND*
X125840000Y-92600000D03*
G04 #@! TO.P,XA1,5V*
G04 #@! TO.N,+5V*
X120760000Y-92600000D03*
G04 #@! TO.P,XA1,3V3*
G04 #@! TO.N,Net-(XA1-Pad3V3)*
X95360000Y-92600000D03*
G04 #@! TO.P,XA1,RST1*
G04 #@! TO.N,Net-(C1-Pad2)*
X123300000Y-92600000D03*
G04 #@! TO.P,XA1,SS*
G04 #@! TO.N,Net-(XA1-PadSS)*
X130920000Y-77360000D03*
G04 #@! TO.P,XA1,D0*
G04 #@! TO.N,Net-(XA1-PadD0)*
X125840000Y-77360000D03*
G04 #@! TO.P,XA1,D1*
G04 #@! TO.N,Net-(XA1-PadD1)*
X128380000Y-77360000D03*
G04 #@! TO.P,XA1,D2*
G04 #@! TO.N,Net-(XA1-PadD2)*
X118220000Y-77360000D03*
G04 #@! TO.P,XA1,D3*
G04 #@! TO.N,Net-(XA1-PadD3)*
X115680000Y-77360000D03*
G04 #@! TO.P,XA1,D4*
G04 #@! TO.N,Net-(XA1-PadD4)*
X113140000Y-77360000D03*
G04 #@! TO.P,XA1,D5*
G04 #@! TO.N,Net-(XA1-PadD5)*
X110600000Y-77360000D03*
G04 #@! TO.P,XA1,D6*
G04 #@! TO.N,Net-(XA1-PadD6)*
X108060000Y-77360000D03*
G04 #@! TO.P,XA1,D7*
G04 #@! TO.N,Net-(XA1-PadD7)*
X105520000Y-77360000D03*
G04 #@! TO.P,XA1,D8*
G04 #@! TO.N,Net-(XA1-PadD8)*
X102980000Y-77360000D03*
G04 #@! TO.P,XA1,D9*
G04 #@! TO.N,Net-(XA1-PadD9)*
X100440000Y-77360000D03*
G04 #@! TO.P,XA1,D10*
G04 #@! TO.N,Net-(U1-Pad4)*
X97900000Y-77360000D03*
G04 #@! TO.P,XA1,AREF*
G04 #@! TO.N,Net-(XA1-PadAREF)*
X97900000Y-92600000D03*
G04 #@! TO.P,XA1,D13*
G04 #@! TO.N,Net-(XA1-PadD13)*
X92820000Y-92600000D03*
G04 #@! TO.P,XA1,D12*
G04 #@! TO.N,Net-(XA1-PadD12)*
X92820000Y-77360000D03*
G04 #@! TO.P,XA1,D11*
G04 #@! TO.N,Net-(XA1-PadD11)*
X95360000Y-77360000D03*
G04 #@! TO.P,XA1,*
G04 #@! TO.N,*
X118220000Y-92600000D03*
G04 #@! TO.P,XA1,A1*
G04 #@! TO.N,Net-(XA1-PadA1)*
X102980000Y-92600000D03*
G04 #@! TO.P,XA1,A2*
G04 #@! TO.N,Net-(XA1-PadA2)*
X105520000Y-92600000D03*
G04 #@! TO.P,XA1,A3*
G04 #@! TO.N,Net-(XA1-PadA3)*
X108060000Y-92600000D03*
G04 #@! TO.P,XA1,A4*
G04 #@! TO.N,Net-(XA1-PadA4)*
X110600000Y-92600000D03*
G04 #@! TO.P,XA1,A5*
G04 #@! TO.N,Net-(XA1-PadA5)*
X113140000Y-92600000D03*
G04 #@! TO.P,XA1,MISO*
G04 #@! TO.N,Net-(U1-Pad8)*
X130920000Y-92600000D03*
G04 #@! TD*
D12*
G04 #@! TO.P,C1,1*
G04 #@! TO.N,GND*
X124460000Y-99060000D03*
D13*
G04 #@! TO.P,C1,2*
G04 #@! TO.N,Net-(C1-Pad2)*
X122960000Y-99060000D03*
G04 #@! TD*
D14*
G04 #@! TO.P,D1,1*
G04 #@! TO.N,GND*
X128270000Y-106680000D03*
D15*
G04 #@! TO.P,D1,2*
G04 #@! TO.N,Net-(D1-Pad2)*
X125730000Y-106680000D03*
G04 #@! TD*
D16*
G04 #@! TO.P,R1,1*
G04 #@! TO.N,Net-(R1-Pad1)*
X110490000Y-106680000D03*
D17*
G04 #@! TO.P,R1,2*
G04 #@! TO.N,Net-(D1-Pad2)*
X120650000Y-106680000D03*
G04 #@! TD*
D18*
G04 #@! TO.P,U1,1*
G04 #@! TO.N,+5V*
X105410000Y-99060000D03*
D17*
G04 #@! TO.P,U1,8*
G04 #@! TO.N,Net-(U1-Pad8)*
X90170000Y-106680000D03*
G04 #@! TO.P,U1,2*
G04 #@! TO.N,Net-(U1-Pad2)*
X102870000Y-99060000D03*
G04 #@! TO.P,U1,9*
G04 #@! TO.N,Net-(U1-Pad9)*
X92710000Y-106680000D03*
G04 #@! TO.P,U1,3*
G04 #@! TO.N,Net-(U1-Pad3)*
X100330000Y-99060000D03*
G04 #@! TO.P,U1,10*
G04 #@! TO.N,Net-(U1-Pad10)*
X95250000Y-106680000D03*
G04 #@! TO.P,U1,4*
G04 #@! TO.N,Net-(U1-Pad4)*
X97790000Y-99060000D03*
G04 #@! TO.P,U1,11*
G04 #@! TO.N,Net-(U1-Pad11)*
X97790000Y-106680000D03*
G04 #@! TO.P,U1,5*
G04 #@! TO.N,Net-(U1-Pad5)*
X95250000Y-99060000D03*
G04 #@! TO.P,U1,12*
G04 #@! TO.N,Net-(U1-Pad12)*
X100330000Y-106680000D03*
G04 #@! TO.P,U1,6*
G04 #@! TO.N,Net-(U1-Pad6)*
X92710000Y-99060000D03*
G04 #@! TO.P,U1,13*
G04 #@! TO.N,Net-(R1-Pad1)*
X102870000Y-106680000D03*
G04 #@! TO.P,U1,7*
G04 #@! TO.N,Net-(U1-Pad7)*
X90170000Y-99060000D03*
G04 #@! TO.P,U1,14*
G04 #@! TO.N,GND*
X105410000Y-106680000D03*
G04 #@! TD*
D19*
G04 #@! TO.N,GND*
X128270000Y-106680000D02*
X128270000Y-100330000D01*
X128270000Y-100330000D02*
X127000000Y-99060000D01*
X127000000Y-99060000D02*
X124460000Y-99060000D01*
X105410000Y-106680000D02*
X106680000Y-106680000D01*
X106680000Y-106680000D02*
X107950000Y-105410000D01*
X107950000Y-105410000D02*
X107950000Y-102870000D01*
X107950000Y-102870000D02*
X109220000Y-101600000D01*
X109220000Y-101600000D02*
X123190000Y-101600000D01*
X123190000Y-101600000D02*
X124460000Y-100330000D01*
X124460000Y-100330000D02*
X124460000Y-99060000D01*
X124460000Y-99060000D02*
X124460000Y-97790000D01*
X125840000Y-96410000D02*
X125840000Y-92600000D01*
X124460000Y-97790000D02*
X125840000Y-96410000D01*
G04 #@! TO.N,Net-(C1-Pad2)*
X123300000Y-92600000D02*
X123300000Y-94378000D01*
X123300000Y-94378000D02*
X120396000Y-97282000D01*
X120396000Y-97282000D02*
X120396000Y-98298000D01*
X121158000Y-99060000D02*
X122960000Y-99060000D01*
X120396000Y-98298000D02*
X121158000Y-99060000D01*
G04 #@! TO.N,Net-(D1-Pad2)*
X120650000Y-106680000D02*
X125730000Y-106680000D01*
G04 #@! TO.N,Net-(R1-Pad1)*
X102870000Y-106680000D02*
X102870000Y-107950000D01*
X110490000Y-107950000D02*
X110490000Y-106680000D01*
X109220000Y-109220000D02*
X110490000Y-107950000D01*
X102870000Y-107950000D02*
X104140000Y-109220000D01*
X104140000Y-109220000D02*
X109220000Y-109220000D01*
G04 #@! TO.N,+5V*
X120760000Y-92600000D02*
X116840000Y-96520000D01*
X107950000Y-96520000D02*
X105410000Y-99060000D01*
X116840000Y-96520000D02*
X107950000Y-96520000D01*
G04 #@! TO.N,Net-(U1-Pad8)*
X138938000Y-91440000D02*
X137414000Y-89916000D01*
X138938000Y-104902000D02*
X138938000Y-91440000D01*
X132334000Y-89916000D02*
X130920000Y-91330000D01*
X130302000Y-113538000D02*
X138938000Y-104902000D01*
X130920000Y-91330000D02*
X130920000Y-92600000D01*
X95758000Y-113538000D02*
X130302000Y-113538000D01*
X137414000Y-89916000D02*
X132334000Y-89916000D01*
X90170000Y-107950000D02*
X95758000Y-113538000D01*
X90170000Y-106680000D02*
X90170000Y-107950000D01*
G04 #@! TO.N,Net-(U1-Pad9)*
X92710000Y-106680000D02*
X97282000Y-111252000D01*
X97282000Y-111252000D02*
X98044000Y-111252000D01*
X133460000Y-107078000D02*
X129286000Y-111252000D01*
X129286000Y-111252000D02*
X98044000Y-111252000D01*
X133460000Y-92600000D02*
X133460000Y-107078000D01*
G04 #@! TO.N,Net-(U1-Pad4)*
X97900000Y-77360000D02*
X97900000Y-79920000D01*
X97900000Y-79920000D02*
X88410000Y-89410000D01*
X88410000Y-89410000D02*
X88410000Y-94680000D01*
X88410000Y-94680000D02*
X90500000Y-96770000D01*
X96900000Y-96770000D02*
X97790000Y-97660000D01*
X90500000Y-96770000D02*
X96900000Y-96770000D01*
X97790000Y-99060000D02*
X97790000Y-97660000D01*
G04 #@! TO.N,Net-(U1-Pad7)*
X131030000Y-74930000D02*
X133460000Y-77360000D01*
X89540000Y-74930000D02*
X131030000Y-74930000D01*
X86000000Y-78470000D02*
X89540000Y-74930000D01*
X86000000Y-97230000D02*
X86000000Y-78470000D01*
X87830000Y-99060000D02*
X86000000Y-97230000D01*
X90170000Y-99060000D02*
X87830000Y-99060000D01*
G04 #@! TD*
M02*
