M48
; DRILL file {KiCad (5.1.9-0-10_14)} date Friday, May 28, 2021 at 02:11:16 PM
; FORMAT={-:-/ absolute / metric / decimal}
; #@! TF.CreationDate,2021-05-28T14:11:16+01:00
; #@! TF.GenerationSoftware,Kicad,Pcbnew,(5.1.9-0-10_14)
FMAT,2
METRIC
T1C0.600
T2C0.800
T3C0.900
T4C1.016
T5C1.016
%
G90
G05
T1
X122.96Y-99.06
X124.46Y-99.06
T2
X90.17Y-99.06
X90.17Y-106.68
X92.71Y-99.06
X92.71Y-106.68
X95.25Y-99.06
X95.25Y-106.68
X97.79Y-99.06
X97.79Y-106.68
X100.33Y-99.06
X100.33Y-106.68
X102.87Y-99.06
X102.87Y-106.68
X105.41Y-99.06
X105.41Y-106.68
X110.49Y-106.68
X120.65Y-106.68
T3
X125.73Y-106.68
X128.27Y-106.68
T4
X92.82Y-77.36
X92.82Y-92.6
X95.36Y-77.36
X95.36Y-92.6
X97.9Y-77.36
X97.9Y-92.6
X100.44Y-77.36
X100.44Y-92.6
X102.98Y-77.36
X102.98Y-92.6
X105.52Y-77.36
X105.52Y-92.6
X108.06Y-77.36
X108.06Y-92.6
X110.6Y-77.36
X110.6Y-92.6
X113.14Y-77.36
X113.14Y-92.6
X115.68Y-77.36
X115.68Y-92.6
X118.22Y-77.36
X118.22Y-92.6
X120.76Y-77.36
X120.76Y-92.6
X123.3Y-77.36
X123.3Y-92.6
X125.84Y-77.36
X125.84Y-92.6
X128.38Y-77.36
X128.38Y-92.6
X130.92Y-77.36
X130.92Y-92.6
X133.46Y-77.36
X133.46Y-92.6
T5
X90.28Y-77.36
X90.28Y-92.6
X136.0Y-77.36
X136.0Y-92.6
T0
M30
