G04 #@! TF.GenerationSoftware,KiCad,Pcbnew,(5.1.9-0-10_14)*
G04 #@! TF.CreationDate,2021-06-09T21:06:45+01:00*
G04 #@! TF.ProjectId,ATtiny84Programmer,41547469-6e79-4383-9450-726f6772616d,rev?*
G04 #@! TF.SameCoordinates,Original*
G04 #@! TF.FileFunction,Copper,L1,Top*
G04 #@! TF.FilePolarity,Positive*
%FSLAX46Y46*%
G04 Gerber Fmt 4.6, Leading zero omitted, Abs format (unit mm)*
G04 Created by KiCad (PCBNEW (5.1.9-0-10_14)) date 2021-06-09 21:06:45*
%MOMM*%
%LPD*%
G01*
G04 APERTURE LIST*
G04 #@! TA.AperFunction,NonConductor*
%ADD10C,0.050000*%
G04 #@! TD*
G04 #@! TA.AperFunction,NonConductor*
%ADD11C,0.300000*%
G04 #@! TD*
G04 #@! TA.AperFunction,EtchedComponent*
%ADD12C,0.010000*%
G04 #@! TD*
G04 #@! TA.AperFunction,ComponentPad*
%ADD13O,1.727200X1.727200*%
G04 #@! TD*
G04 #@! TA.AperFunction,ComponentPad*
%ADD14R,1.727200X1.727200*%
G04 #@! TD*
G04 #@! TA.AperFunction,ComponentPad*
%ADD15R,1.200000X1.200000*%
G04 #@! TD*
G04 #@! TA.AperFunction,ComponentPad*
%ADD16C,1.200000*%
G04 #@! TD*
G04 #@! TA.AperFunction,ComponentPad*
%ADD17R,1.800000X1.800000*%
G04 #@! TD*
G04 #@! TA.AperFunction,ComponentPad*
%ADD18C,1.800000*%
G04 #@! TD*
G04 #@! TA.AperFunction,ComponentPad*
%ADD19C,1.600000*%
G04 #@! TD*
G04 #@! TA.AperFunction,ComponentPad*
%ADD20O,1.600000X1.600000*%
G04 #@! TD*
G04 #@! TA.AperFunction,ComponentPad*
%ADD21R,1.600000X1.600000*%
G04 #@! TD*
G04 APERTURE END LIST*
D10*
X140970000Y-71120000D02*
X83820000Y-71120000D01*
X83820000Y-71120000D02*
X83820000Y-115316000D01*
X140970000Y-115316000D02*
X140970000Y-71120000D01*
X83820000Y-115316000D02*
X140970000Y-115316000D01*
D11*
X115202857Y-112958571D02*
X114488571Y-112958571D01*
X114488571Y-111458571D01*
X115560000Y-111458571D02*
X115917142Y-112958571D01*
X116202857Y-111887142D01*
X116488571Y-112958571D01*
X116845714Y-111458571D01*
X118488571Y-111601428D02*
X118560000Y-111530000D01*
X118702857Y-111458571D01*
X119060000Y-111458571D01*
X119202857Y-111530000D01*
X119274285Y-111601428D01*
X119345714Y-111744285D01*
X119345714Y-111887142D01*
X119274285Y-112101428D01*
X118417142Y-112958571D01*
X119345714Y-112958571D01*
X119845714Y-111458571D02*
X120845714Y-111458571D01*
X120202857Y-112958571D01*
X122488571Y-111387142D02*
X121202857Y-113315714D01*
X123702857Y-111458571D02*
X122988571Y-111458571D01*
X122917142Y-112172857D01*
X122988571Y-112101428D01*
X123131428Y-112030000D01*
X123488571Y-112030000D01*
X123631428Y-112101428D01*
X123702857Y-112172857D01*
X123774285Y-112315714D01*
X123774285Y-112672857D01*
X123702857Y-112815714D01*
X123631428Y-112887142D01*
X123488571Y-112958571D01*
X123131428Y-112958571D01*
X122988571Y-112887142D01*
X122917142Y-112815714D01*
X125488571Y-111387142D02*
X124202857Y-113315714D01*
X125917142Y-111601428D02*
X125988571Y-111530000D01*
X126131428Y-111458571D01*
X126488571Y-111458571D01*
X126631428Y-111530000D01*
X126702857Y-111601428D01*
X126774285Y-111744285D01*
X126774285Y-111887142D01*
X126702857Y-112101428D01*
X125845714Y-112958571D01*
X126774285Y-112958571D01*
X128202857Y-112958571D02*
X127345714Y-112958571D01*
X127774285Y-112958571D02*
X127774285Y-111458571D01*
X127631428Y-111672857D01*
X127488571Y-111815714D01*
X127345714Y-111887142D01*
X90009999Y-73910000D02*
X90724285Y-73910000D01*
X89867142Y-74338571D02*
X90367142Y-72838571D01*
X90867142Y-74338571D01*
X91152857Y-72838571D02*
X92009999Y-72838571D01*
X91581428Y-74338571D02*
X91581428Y-72838571D01*
X92295714Y-73338571D02*
X92867142Y-73338571D01*
X92509999Y-72838571D02*
X92509999Y-74124285D01*
X92581428Y-74267142D01*
X92724285Y-74338571D01*
X92867142Y-74338571D01*
X93367142Y-74338571D02*
X93367142Y-73338571D01*
X93367142Y-72838571D02*
X93295714Y-72910000D01*
X93367142Y-72981428D01*
X93438571Y-72910000D01*
X93367142Y-72838571D01*
X93367142Y-72981428D01*
X94081428Y-73338571D02*
X94081428Y-74338571D01*
X94081428Y-73481428D02*
X94152857Y-73410000D01*
X94295714Y-73338571D01*
X94509999Y-73338571D01*
X94652857Y-73410000D01*
X94724285Y-73552857D01*
X94724285Y-74338571D01*
X95295714Y-73338571D02*
X95652857Y-74338571D01*
X96009999Y-73338571D02*
X95652857Y-74338571D01*
X95509999Y-74695714D01*
X95438571Y-74767142D01*
X95295714Y-74838571D01*
X96795714Y-73481428D02*
X96652857Y-73410000D01*
X96581428Y-73338571D01*
X96509999Y-73195714D01*
X96509999Y-73124285D01*
X96581428Y-72981428D01*
X96652857Y-72910000D01*
X96795714Y-72838571D01*
X97081428Y-72838571D01*
X97224285Y-72910000D01*
X97295714Y-72981428D01*
X97367142Y-73124285D01*
X97367142Y-73195714D01*
X97295714Y-73338571D01*
X97224285Y-73410000D01*
X97081428Y-73481428D01*
X96795714Y-73481428D01*
X96652857Y-73552857D01*
X96581428Y-73624285D01*
X96509999Y-73767142D01*
X96509999Y-74052857D01*
X96581428Y-74195714D01*
X96652857Y-74267142D01*
X96795714Y-74338571D01*
X97081428Y-74338571D01*
X97224285Y-74267142D01*
X97295714Y-74195714D01*
X97367142Y-74052857D01*
X97367142Y-73767142D01*
X97295714Y-73624285D01*
X97224285Y-73552857D01*
X97081428Y-73481428D01*
X98652857Y-73338571D02*
X98652857Y-74338571D01*
X98295714Y-72767142D02*
X97938571Y-73838571D01*
X98867142Y-73838571D01*
X99367142Y-73910000D02*
X100081428Y-73910000D01*
X99224285Y-74338571D02*
X99724285Y-72838571D01*
X100224285Y-74338571D01*
X101867142Y-74338571D02*
X101867142Y-72838571D01*
X102438571Y-72838571D01*
X102581428Y-72910000D01*
X102652857Y-72981428D01*
X102724285Y-73124285D01*
X102724285Y-73338571D01*
X102652857Y-73481428D01*
X102581428Y-73552857D01*
X102438571Y-73624285D01*
X101867142Y-73624285D01*
X103367142Y-74338571D02*
X103367142Y-73338571D01*
X103367142Y-73624285D02*
X103438571Y-73481428D01*
X103509999Y-73410000D01*
X103652857Y-73338571D01*
X103795714Y-73338571D01*
X104509999Y-74338571D02*
X104367142Y-74267142D01*
X104295714Y-74195714D01*
X104224285Y-74052857D01*
X104224285Y-73624285D01*
X104295714Y-73481428D01*
X104367142Y-73410000D01*
X104509999Y-73338571D01*
X104724285Y-73338571D01*
X104867142Y-73410000D01*
X104938571Y-73481428D01*
X105009999Y-73624285D01*
X105009999Y-74052857D01*
X104938571Y-74195714D01*
X104867142Y-74267142D01*
X104724285Y-74338571D01*
X104509999Y-74338571D01*
X106295714Y-73338571D02*
X106295714Y-74552857D01*
X106224285Y-74695714D01*
X106152857Y-74767142D01*
X106009999Y-74838571D01*
X105795714Y-74838571D01*
X105652857Y-74767142D01*
X106295714Y-74267142D02*
X106152857Y-74338571D01*
X105867142Y-74338571D01*
X105724285Y-74267142D01*
X105652857Y-74195714D01*
X105581428Y-74052857D01*
X105581428Y-73624285D01*
X105652857Y-73481428D01*
X105724285Y-73410000D01*
X105867142Y-73338571D01*
X106152857Y-73338571D01*
X106295714Y-73410000D01*
X107009999Y-74338571D02*
X107009999Y-73338571D01*
X107009999Y-73624285D02*
X107081428Y-73481428D01*
X107152857Y-73410000D01*
X107295714Y-73338571D01*
X107438571Y-73338571D01*
X108581428Y-74338571D02*
X108581428Y-73552857D01*
X108509999Y-73410000D01*
X108367142Y-73338571D01*
X108081428Y-73338571D01*
X107938571Y-73410000D01*
X108581428Y-74267142D02*
X108438571Y-74338571D01*
X108081428Y-74338571D01*
X107938571Y-74267142D01*
X107867142Y-74124285D01*
X107867142Y-73981428D01*
X107938571Y-73838571D01*
X108081428Y-73767142D01*
X108438571Y-73767142D01*
X108581428Y-73695714D01*
X109295714Y-74338571D02*
X109295714Y-73338571D01*
X109295714Y-73481428D02*
X109367142Y-73410000D01*
X109509999Y-73338571D01*
X109724285Y-73338571D01*
X109867142Y-73410000D01*
X109938571Y-73552857D01*
X109938571Y-74338571D01*
X109938571Y-73552857D02*
X110009999Y-73410000D01*
X110152857Y-73338571D01*
X110367142Y-73338571D01*
X110509999Y-73410000D01*
X110581428Y-73552857D01*
X110581428Y-74338571D01*
X111295714Y-74338571D02*
X111295714Y-73338571D01*
X111295714Y-73481428D02*
X111367142Y-73410000D01*
X111509999Y-73338571D01*
X111724285Y-73338571D01*
X111867142Y-73410000D01*
X111938571Y-73552857D01*
X111938571Y-74338571D01*
X111938571Y-73552857D02*
X112009999Y-73410000D01*
X112152857Y-73338571D01*
X112367142Y-73338571D01*
X112509999Y-73410000D01*
X112581428Y-73552857D01*
X112581428Y-74338571D01*
X113867142Y-74267142D02*
X113724285Y-74338571D01*
X113438571Y-74338571D01*
X113295714Y-74267142D01*
X113224285Y-74124285D01*
X113224285Y-73552857D01*
X113295714Y-73410000D01*
X113438571Y-73338571D01*
X113724285Y-73338571D01*
X113867142Y-73410000D01*
X113938571Y-73552857D01*
X113938571Y-73695714D01*
X113224285Y-73838571D01*
X114581428Y-74338571D02*
X114581428Y-73338571D01*
X114581428Y-73624285D02*
X114652857Y-73481428D01*
X114724285Y-73410000D01*
X114867142Y-73338571D01*
X115009999Y-73338571D01*
X117081428Y-74910000D02*
X117009999Y-74838571D01*
X116867142Y-74624285D01*
X116795714Y-74481428D01*
X116724285Y-74267142D01*
X116652857Y-73910000D01*
X116652857Y-73624285D01*
X116724285Y-73267142D01*
X116795714Y-73052857D01*
X116867142Y-72910000D01*
X117009999Y-72695714D01*
X117081428Y-72624285D01*
X117581428Y-73910000D02*
X118295714Y-73910000D01*
X117438571Y-74338571D02*
X117938571Y-72838571D01*
X118438571Y-74338571D01*
X118938571Y-74338571D02*
X118938571Y-73338571D01*
X118938571Y-73624285D02*
X119009999Y-73481428D01*
X119081428Y-73410000D01*
X119224285Y-73338571D01*
X119367142Y-73338571D01*
X120509999Y-74338571D02*
X120509999Y-72838571D01*
X120509999Y-74267142D02*
X120367142Y-74338571D01*
X120081428Y-74338571D01*
X119938571Y-74267142D01*
X119867142Y-74195714D01*
X119795714Y-74052857D01*
X119795714Y-73624285D01*
X119867142Y-73481428D01*
X119938571Y-73410000D01*
X120081428Y-73338571D01*
X120367142Y-73338571D01*
X120509999Y-73410000D01*
X121867142Y-73338571D02*
X121867142Y-74338571D01*
X121224285Y-73338571D02*
X121224285Y-74124285D01*
X121295714Y-74267142D01*
X121438571Y-74338571D01*
X121652857Y-74338571D01*
X121795714Y-74267142D01*
X121867142Y-74195714D01*
X122581428Y-74338571D02*
X122581428Y-73338571D01*
X122581428Y-72838571D02*
X122510000Y-72910000D01*
X122581428Y-72981428D01*
X122652857Y-72910000D01*
X122581428Y-72838571D01*
X122581428Y-72981428D01*
X123295714Y-73338571D02*
X123295714Y-74338571D01*
X123295714Y-73481428D02*
X123367142Y-73410000D01*
X123510000Y-73338571D01*
X123724285Y-73338571D01*
X123867142Y-73410000D01*
X123938571Y-73552857D01*
X123938571Y-74338571D01*
X124867142Y-74338571D02*
X124724285Y-74267142D01*
X124652857Y-74195714D01*
X124581428Y-74052857D01*
X124581428Y-73624285D01*
X124652857Y-73481428D01*
X124724285Y-73410000D01*
X124867142Y-73338571D01*
X125081428Y-73338571D01*
X125224285Y-73410000D01*
X125295714Y-73481428D01*
X125367142Y-73624285D01*
X125367142Y-74052857D01*
X125295714Y-74195714D01*
X125224285Y-74267142D01*
X125081428Y-74338571D01*
X124867142Y-74338571D01*
X127152857Y-74338571D02*
X127152857Y-72838571D01*
X127652857Y-73910000D01*
X128152857Y-72838571D01*
X128152857Y-74338571D01*
X128867142Y-74338571D02*
X128867142Y-73338571D01*
X128867142Y-72838571D02*
X128795714Y-72910000D01*
X128867142Y-72981428D01*
X128938571Y-72910000D01*
X128867142Y-72838571D01*
X128867142Y-72981428D01*
X130224285Y-74267142D02*
X130081428Y-74338571D01*
X129795714Y-74338571D01*
X129652857Y-74267142D01*
X129581428Y-74195714D01*
X129510000Y-74052857D01*
X129510000Y-73624285D01*
X129581428Y-73481428D01*
X129652857Y-73410000D01*
X129795714Y-73338571D01*
X130081428Y-73338571D01*
X130224285Y-73410000D01*
X130867142Y-74338571D02*
X130867142Y-73338571D01*
X130867142Y-73624285D02*
X130938571Y-73481428D01*
X131010000Y-73410000D01*
X131152857Y-73338571D01*
X131295714Y-73338571D01*
X132010000Y-74338571D02*
X131867142Y-74267142D01*
X131795714Y-74195714D01*
X131724285Y-74052857D01*
X131724285Y-73624285D01*
X131795714Y-73481428D01*
X131867142Y-73410000D01*
X132010000Y-73338571D01*
X132224285Y-73338571D01*
X132367142Y-73410000D01*
X132438571Y-73481428D01*
X132510000Y-73624285D01*
X132510000Y-74052857D01*
X132438571Y-74195714D01*
X132367142Y-74267142D01*
X132224285Y-74338571D01*
X132010000Y-74338571D01*
X133010000Y-74910000D02*
X133081428Y-74838571D01*
X133224285Y-74624285D01*
X133295714Y-74481428D01*
X133367142Y-74267142D01*
X133438571Y-73910000D01*
X133438571Y-73624285D01*
X133367142Y-73267142D01*
X133295714Y-73052857D01*
X133224285Y-72910000D01*
X133081428Y-72695714D01*
X133010000Y-72624285D01*
X86808571Y-86982857D02*
X88022857Y-86982857D01*
X88165714Y-86911428D01*
X88237142Y-86840000D01*
X88308571Y-86697142D01*
X88308571Y-86411428D01*
X88237142Y-86268571D01*
X88165714Y-86197142D01*
X88022857Y-86125714D01*
X86808571Y-86125714D01*
X88237142Y-85482857D02*
X88308571Y-85268571D01*
X88308571Y-84911428D01*
X88237142Y-84768571D01*
X88165714Y-84697142D01*
X88022857Y-84625714D01*
X87880000Y-84625714D01*
X87737142Y-84697142D01*
X87665714Y-84768571D01*
X87594285Y-84911428D01*
X87522857Y-85197142D01*
X87451428Y-85340000D01*
X87380000Y-85411428D01*
X87237142Y-85482857D01*
X87094285Y-85482857D01*
X86951428Y-85411428D01*
X86880000Y-85340000D01*
X86808571Y-85197142D01*
X86808571Y-84840000D01*
X86880000Y-84625714D01*
X87522857Y-83482857D02*
X87594285Y-83268571D01*
X87665714Y-83197142D01*
X87808571Y-83125714D01*
X88022857Y-83125714D01*
X88165714Y-83197142D01*
X88237142Y-83268571D01*
X88308571Y-83411428D01*
X88308571Y-83982857D01*
X86808571Y-83982857D01*
X86808571Y-83482857D01*
X86880000Y-83340000D01*
X86951428Y-83268571D01*
X87094285Y-83197142D01*
X87237142Y-83197142D01*
X87380000Y-83268571D01*
X87451428Y-83340000D01*
X87522857Y-83482857D01*
X87522857Y-83982857D01*
D12*
G04 #@! TO.C,G\u002A\u002A\u002A*
G36*
X134519981Y-103319088D02*
G01*
X134590802Y-103324944D01*
X134612880Y-103327452D01*
X134682240Y-103337544D01*
X134751097Y-103350954D01*
X134819314Y-103367633D01*
X134886752Y-103387532D01*
X134953273Y-103410602D01*
X135018740Y-103436794D01*
X135083013Y-103466060D01*
X135145956Y-103498349D01*
X135207429Y-103533614D01*
X135225471Y-103544708D01*
X135283433Y-103582891D01*
X135339734Y-103623950D01*
X135394215Y-103667728D01*
X135446719Y-103714069D01*
X135497089Y-103762813D01*
X135545167Y-103813805D01*
X135590796Y-103866887D01*
X135633818Y-103921900D01*
X135674076Y-103978689D01*
X135701118Y-104020356D01*
X135730914Y-104070267D01*
X135759202Y-104122073D01*
X135785588Y-104174986D01*
X135809681Y-104228214D01*
X135831090Y-104280969D01*
X135832876Y-104285679D01*
X135856355Y-104352725D01*
X135876577Y-104420596D01*
X135893539Y-104489172D01*
X135907236Y-104558335D01*
X135917665Y-104627965D01*
X135924821Y-104697943D01*
X135928701Y-104768151D01*
X135929301Y-104838470D01*
X135926616Y-104908779D01*
X135920643Y-104978961D01*
X135911378Y-105048897D01*
X135898816Y-105118466D01*
X135882955Y-105187552D01*
X135865057Y-105251860D01*
X135843014Y-105318937D01*
X135817839Y-105384793D01*
X135789600Y-105449320D01*
X135758364Y-105512410D01*
X135724197Y-105573957D01*
X135687167Y-105633853D01*
X135647341Y-105691992D01*
X135604785Y-105748266D01*
X135559567Y-105802569D01*
X135511752Y-105854792D01*
X135461409Y-105904829D01*
X135451338Y-105914290D01*
X135398236Y-105961429D01*
X135343144Y-106005871D01*
X135286170Y-106047565D01*
X135227424Y-106086458D01*
X135167011Y-106122499D01*
X135105042Y-106155635D01*
X135041623Y-106185815D01*
X134976862Y-106212986D01*
X134910869Y-106237097D01*
X134843750Y-106258094D01*
X134775614Y-106275927D01*
X134706570Y-106290544D01*
X134650980Y-106299852D01*
X134632283Y-106302450D01*
X134611295Y-106305078D01*
X134589106Y-106307613D01*
X134566808Y-106309933D01*
X134545493Y-106311917D01*
X134534987Y-106312789D01*
X134526313Y-106313322D01*
X134514781Y-106313803D01*
X134500919Y-106314228D01*
X134485255Y-106314590D01*
X134468316Y-106314886D01*
X134450631Y-106315111D01*
X134432728Y-106315260D01*
X134415134Y-106315329D01*
X134398378Y-106315312D01*
X134382988Y-106315206D01*
X134369492Y-106315005D01*
X134358417Y-106314705D01*
X134352107Y-106314417D01*
X134283954Y-106309101D01*
X134217614Y-106301164D01*
X134152658Y-106290521D01*
X134088659Y-106277091D01*
X134025186Y-106260790D01*
X133961810Y-106241534D01*
X133941473Y-106234732D01*
X133875606Y-106210435D01*
X133810996Y-106183019D01*
X133747749Y-106152551D01*
X133685971Y-106119098D01*
X133625771Y-106082726D01*
X133567253Y-106043503D01*
X133510526Y-106001494D01*
X133455695Y-105956768D01*
X133402867Y-105909390D01*
X133369138Y-105876688D01*
X133319895Y-105825079D01*
X133273353Y-105771475D01*
X133229556Y-105715970D01*
X133188550Y-105658660D01*
X133150378Y-105599641D01*
X133115087Y-105539008D01*
X133082720Y-105476857D01*
X133053323Y-105413283D01*
X133026940Y-105348382D01*
X133003616Y-105282249D01*
X132983395Y-105214980D01*
X132966323Y-105146671D01*
X132952444Y-105077417D01*
X132941803Y-105007313D01*
X132935706Y-104951293D01*
X132931880Y-104896320D01*
X132930080Y-104839706D01*
X132930296Y-104782445D01*
X132932517Y-104725531D01*
X132936732Y-104669957D01*
X132939084Y-104647340D01*
X132948718Y-104576951D01*
X132961633Y-104507317D01*
X132977785Y-104438541D01*
X132997133Y-104370723D01*
X133019634Y-104303966D01*
X133045245Y-104238371D01*
X133073924Y-104174041D01*
X133105628Y-104111076D01*
X133140315Y-104049579D01*
X133177942Y-103989652D01*
X133218467Y-103931395D01*
X133261848Y-103874912D01*
X133261886Y-103874865D01*
X133296003Y-103834245D01*
X133332770Y-103793624D01*
X133371522Y-103753675D01*
X133411589Y-103715071D01*
X133452305Y-103678485D01*
X133479419Y-103655597D01*
X133534978Y-103612107D01*
X133592311Y-103571463D01*
X133651308Y-103533698D01*
X133711859Y-103498844D01*
X133773856Y-103466930D01*
X133837190Y-103437991D01*
X133901750Y-103412056D01*
X133967428Y-103389158D01*
X134034115Y-103369328D01*
X134101701Y-103352598D01*
X134170076Y-103339000D01*
X134239133Y-103328565D01*
X134308761Y-103321324D01*
X134378851Y-103317311D01*
X134449294Y-103316555D01*
X134519981Y-103319088D01*
G37*
X134519981Y-103319088D02*
X134590802Y-103324944D01*
X134612880Y-103327452D01*
X134682240Y-103337544D01*
X134751097Y-103350954D01*
X134819314Y-103367633D01*
X134886752Y-103387532D01*
X134953273Y-103410602D01*
X135018740Y-103436794D01*
X135083013Y-103466060D01*
X135145956Y-103498349D01*
X135207429Y-103533614D01*
X135225471Y-103544708D01*
X135283433Y-103582891D01*
X135339734Y-103623950D01*
X135394215Y-103667728D01*
X135446719Y-103714069D01*
X135497089Y-103762813D01*
X135545167Y-103813805D01*
X135590796Y-103866887D01*
X135633818Y-103921900D01*
X135674076Y-103978689D01*
X135701118Y-104020356D01*
X135730914Y-104070267D01*
X135759202Y-104122073D01*
X135785588Y-104174986D01*
X135809681Y-104228214D01*
X135831090Y-104280969D01*
X135832876Y-104285679D01*
X135856355Y-104352725D01*
X135876577Y-104420596D01*
X135893539Y-104489172D01*
X135907236Y-104558335D01*
X135917665Y-104627965D01*
X135924821Y-104697943D01*
X135928701Y-104768151D01*
X135929301Y-104838470D01*
X135926616Y-104908779D01*
X135920643Y-104978961D01*
X135911378Y-105048897D01*
X135898816Y-105118466D01*
X135882955Y-105187552D01*
X135865057Y-105251860D01*
X135843014Y-105318937D01*
X135817839Y-105384793D01*
X135789600Y-105449320D01*
X135758364Y-105512410D01*
X135724197Y-105573957D01*
X135687167Y-105633853D01*
X135647341Y-105691992D01*
X135604785Y-105748266D01*
X135559567Y-105802569D01*
X135511752Y-105854792D01*
X135461409Y-105904829D01*
X135451338Y-105914290D01*
X135398236Y-105961429D01*
X135343144Y-106005871D01*
X135286170Y-106047565D01*
X135227424Y-106086458D01*
X135167011Y-106122499D01*
X135105042Y-106155635D01*
X135041623Y-106185815D01*
X134976862Y-106212986D01*
X134910869Y-106237097D01*
X134843750Y-106258094D01*
X134775614Y-106275927D01*
X134706570Y-106290544D01*
X134650980Y-106299852D01*
X134632283Y-106302450D01*
X134611295Y-106305078D01*
X134589106Y-106307613D01*
X134566808Y-106309933D01*
X134545493Y-106311917D01*
X134534987Y-106312789D01*
X134526313Y-106313322D01*
X134514781Y-106313803D01*
X134500919Y-106314228D01*
X134485255Y-106314590D01*
X134468316Y-106314886D01*
X134450631Y-106315111D01*
X134432728Y-106315260D01*
X134415134Y-106315329D01*
X134398378Y-106315312D01*
X134382988Y-106315206D01*
X134369492Y-106315005D01*
X134358417Y-106314705D01*
X134352107Y-106314417D01*
X134283954Y-106309101D01*
X134217614Y-106301164D01*
X134152658Y-106290521D01*
X134088659Y-106277091D01*
X134025186Y-106260790D01*
X133961810Y-106241534D01*
X133941473Y-106234732D01*
X133875606Y-106210435D01*
X133810996Y-106183019D01*
X133747749Y-106152551D01*
X133685971Y-106119098D01*
X133625771Y-106082726D01*
X133567253Y-106043503D01*
X133510526Y-106001494D01*
X133455695Y-105956768D01*
X133402867Y-105909390D01*
X133369138Y-105876688D01*
X133319895Y-105825079D01*
X133273353Y-105771475D01*
X133229556Y-105715970D01*
X133188550Y-105658660D01*
X133150378Y-105599641D01*
X133115087Y-105539008D01*
X133082720Y-105476857D01*
X133053323Y-105413283D01*
X133026940Y-105348382D01*
X133003616Y-105282249D01*
X132983395Y-105214980D01*
X132966323Y-105146671D01*
X132952444Y-105077417D01*
X132941803Y-105007313D01*
X132935706Y-104951293D01*
X132931880Y-104896320D01*
X132930080Y-104839706D01*
X132930296Y-104782445D01*
X132932517Y-104725531D01*
X132936732Y-104669957D01*
X132939084Y-104647340D01*
X132948718Y-104576951D01*
X132961633Y-104507317D01*
X132977785Y-104438541D01*
X132997133Y-104370723D01*
X133019634Y-104303966D01*
X133045245Y-104238371D01*
X133073924Y-104174041D01*
X133105628Y-104111076D01*
X133140315Y-104049579D01*
X133177942Y-103989652D01*
X133218467Y-103931395D01*
X133261848Y-103874912D01*
X133261886Y-103874865D01*
X133296003Y-103834245D01*
X133332770Y-103793624D01*
X133371522Y-103753675D01*
X133411589Y-103715071D01*
X133452305Y-103678485D01*
X133479419Y-103655597D01*
X133534978Y-103612107D01*
X133592311Y-103571463D01*
X133651308Y-103533698D01*
X133711859Y-103498844D01*
X133773856Y-103466930D01*
X133837190Y-103437991D01*
X133901750Y-103412056D01*
X133967428Y-103389158D01*
X134034115Y-103369328D01*
X134101701Y-103352598D01*
X134170076Y-103339000D01*
X134239133Y-103328565D01*
X134308761Y-103321324D01*
X134378851Y-103317311D01*
X134449294Y-103316555D01*
X134519981Y-103319088D01*
G36*
X137840048Y-106651644D02*
G01*
X137897947Y-106655706D01*
X137968726Y-106663754D01*
X138038659Y-106675057D01*
X138107660Y-106689569D01*
X138175642Y-106707245D01*
X138242520Y-106728040D01*
X138308207Y-106751908D01*
X138372616Y-106778803D01*
X138435662Y-106808680D01*
X138497259Y-106841495D01*
X138557320Y-106877200D01*
X138615759Y-106915752D01*
X138672490Y-106957103D01*
X138727427Y-107001210D01*
X138780483Y-107048026D01*
X138831573Y-107097507D01*
X138880610Y-107149606D01*
X138919159Y-107194166D01*
X138962595Y-107248960D01*
X139003288Y-107305678D01*
X139041196Y-107364198D01*
X139076272Y-107424397D01*
X139108475Y-107486153D01*
X139137759Y-107549343D01*
X139164080Y-107613844D01*
X139187395Y-107679535D01*
X139207658Y-107746292D01*
X139224827Y-107813993D01*
X139238857Y-107882515D01*
X139249703Y-107951735D01*
X139257322Y-108021532D01*
X139261670Y-108091783D01*
X139262763Y-108149153D01*
X139261079Y-108220549D01*
X139256071Y-108291467D01*
X139247769Y-108361811D01*
X139236203Y-108431480D01*
X139221402Y-108500379D01*
X139203396Y-108568407D01*
X139182215Y-108635468D01*
X139157888Y-108701463D01*
X139130445Y-108766294D01*
X139099916Y-108829863D01*
X139066330Y-108892071D01*
X139029716Y-108952821D01*
X139011950Y-108980122D01*
X138975742Y-109032136D01*
X138937574Y-109082347D01*
X138896857Y-109131519D01*
X138878957Y-109151929D01*
X138871741Y-109159808D01*
X138862522Y-109169539D01*
X138851726Y-109180699D01*
X138839782Y-109192861D01*
X138827116Y-109205600D01*
X138814158Y-109218492D01*
X138801334Y-109231111D01*
X138789071Y-109243032D01*
X138777799Y-109253829D01*
X138767944Y-109263079D01*
X138759934Y-109270355D01*
X138759007Y-109271172D01*
X138702930Y-109318211D01*
X138645481Y-109362153D01*
X138586653Y-109403004D01*
X138526443Y-109440764D01*
X138464845Y-109475436D01*
X138401854Y-109507023D01*
X138337465Y-109535528D01*
X138271674Y-109560952D01*
X138204477Y-109583300D01*
X138135867Y-109602572D01*
X138128240Y-109604503D01*
X138073166Y-109617255D01*
X138018568Y-109627754D01*
X137963728Y-109636099D01*
X137907926Y-109642391D01*
X137850443Y-109646730D01*
X137811099Y-109648577D01*
X137797038Y-109649082D01*
X137785481Y-109649469D01*
X137775738Y-109649737D01*
X137767121Y-109649885D01*
X137758940Y-109649914D01*
X137750508Y-109649824D01*
X137741134Y-109649613D01*
X137730130Y-109649281D01*
X137716808Y-109648829D01*
X137708293Y-109648531D01*
X137637418Y-109644355D01*
X137567064Y-109636847D01*
X137497312Y-109626030D01*
X137428243Y-109611930D01*
X137359936Y-109594572D01*
X137292473Y-109573979D01*
X137225932Y-109550177D01*
X137160396Y-109523192D01*
X137095944Y-109493046D01*
X137032656Y-109459766D01*
X136970613Y-109423377D01*
X136962780Y-109418505D01*
X136907802Y-109382197D01*
X136853911Y-109342849D01*
X136801373Y-109300703D01*
X136750453Y-109256004D01*
X136701415Y-109208996D01*
X136654524Y-109159923D01*
X136610045Y-109109028D01*
X136568244Y-109056556D01*
X136564573Y-109051700D01*
X136523483Y-108994319D01*
X136485062Y-108934980D01*
X136449432Y-108873901D01*
X136416713Y-108811302D01*
X136387025Y-108747400D01*
X136360489Y-108682413D01*
X136359782Y-108680552D01*
X136336393Y-108614112D01*
X136316229Y-108546756D01*
X136299295Y-108478613D01*
X136285596Y-108409812D01*
X136275135Y-108340483D01*
X136267917Y-108270754D01*
X136263946Y-108200756D01*
X136263227Y-108130617D01*
X136265763Y-108060466D01*
X136271560Y-107990433D01*
X136280621Y-107920647D01*
X136292951Y-107851238D01*
X136308554Y-107782334D01*
X136327435Y-107714064D01*
X136327464Y-107713967D01*
X136349631Y-107646421D01*
X136374862Y-107580316D01*
X136403152Y-107515660D01*
X136434495Y-107452464D01*
X136468885Y-107390738D01*
X136506318Y-107330492D01*
X136546787Y-107271736D01*
X136590287Y-107214480D01*
X136636812Y-107158734D01*
X136641319Y-107153595D01*
X136650589Y-107143346D01*
X136661875Y-107131308D01*
X136674717Y-107117941D01*
X136688653Y-107103704D01*
X136703221Y-107089058D01*
X136717959Y-107074462D01*
X136732404Y-107060376D01*
X136746096Y-107047259D01*
X136758572Y-107035572D01*
X136769371Y-107025775D01*
X136772412Y-107023101D01*
X136828394Y-106976511D01*
X136885865Y-106932958D01*
X136944817Y-106892447D01*
X137005241Y-106854982D01*
X137067131Y-106820567D01*
X137130478Y-106789207D01*
X137195273Y-106760906D01*
X137261510Y-106735668D01*
X137329179Y-106713498D01*
X137353801Y-106706293D01*
X137421329Y-106688891D01*
X137489890Y-106674650D01*
X137559252Y-106663594D01*
X137629182Y-106655744D01*
X137699447Y-106651121D01*
X137769813Y-106649747D01*
X137840048Y-106651644D01*
G37*
X137840048Y-106651644D02*
X137897947Y-106655706D01*
X137968726Y-106663754D01*
X138038659Y-106675057D01*
X138107660Y-106689569D01*
X138175642Y-106707245D01*
X138242520Y-106728040D01*
X138308207Y-106751908D01*
X138372616Y-106778803D01*
X138435662Y-106808680D01*
X138497259Y-106841495D01*
X138557320Y-106877200D01*
X138615759Y-106915752D01*
X138672490Y-106957103D01*
X138727427Y-107001210D01*
X138780483Y-107048026D01*
X138831573Y-107097507D01*
X138880610Y-107149606D01*
X138919159Y-107194166D01*
X138962595Y-107248960D01*
X139003288Y-107305678D01*
X139041196Y-107364198D01*
X139076272Y-107424397D01*
X139108475Y-107486153D01*
X139137759Y-107549343D01*
X139164080Y-107613844D01*
X139187395Y-107679535D01*
X139207658Y-107746292D01*
X139224827Y-107813993D01*
X139238857Y-107882515D01*
X139249703Y-107951735D01*
X139257322Y-108021532D01*
X139261670Y-108091783D01*
X139262763Y-108149153D01*
X139261079Y-108220549D01*
X139256071Y-108291467D01*
X139247769Y-108361811D01*
X139236203Y-108431480D01*
X139221402Y-108500379D01*
X139203396Y-108568407D01*
X139182215Y-108635468D01*
X139157888Y-108701463D01*
X139130445Y-108766294D01*
X139099916Y-108829863D01*
X139066330Y-108892071D01*
X139029716Y-108952821D01*
X139011950Y-108980122D01*
X138975742Y-109032136D01*
X138937574Y-109082347D01*
X138896857Y-109131519D01*
X138878957Y-109151929D01*
X138871741Y-109159808D01*
X138862522Y-109169539D01*
X138851726Y-109180699D01*
X138839782Y-109192861D01*
X138827116Y-109205600D01*
X138814158Y-109218492D01*
X138801334Y-109231111D01*
X138789071Y-109243032D01*
X138777799Y-109253829D01*
X138767944Y-109263079D01*
X138759934Y-109270355D01*
X138759007Y-109271172D01*
X138702930Y-109318211D01*
X138645481Y-109362153D01*
X138586653Y-109403004D01*
X138526443Y-109440764D01*
X138464845Y-109475436D01*
X138401854Y-109507023D01*
X138337465Y-109535528D01*
X138271674Y-109560952D01*
X138204477Y-109583300D01*
X138135867Y-109602572D01*
X138128240Y-109604503D01*
X138073166Y-109617255D01*
X138018568Y-109627754D01*
X137963728Y-109636099D01*
X137907926Y-109642391D01*
X137850443Y-109646730D01*
X137811099Y-109648577D01*
X137797038Y-109649082D01*
X137785481Y-109649469D01*
X137775738Y-109649737D01*
X137767121Y-109649885D01*
X137758940Y-109649914D01*
X137750508Y-109649824D01*
X137741134Y-109649613D01*
X137730130Y-109649281D01*
X137716808Y-109648829D01*
X137708293Y-109648531D01*
X137637418Y-109644355D01*
X137567064Y-109636847D01*
X137497312Y-109626030D01*
X137428243Y-109611930D01*
X137359936Y-109594572D01*
X137292473Y-109573979D01*
X137225932Y-109550177D01*
X137160396Y-109523192D01*
X137095944Y-109493046D01*
X137032656Y-109459766D01*
X136970613Y-109423377D01*
X136962780Y-109418505D01*
X136907802Y-109382197D01*
X136853911Y-109342849D01*
X136801373Y-109300703D01*
X136750453Y-109256004D01*
X136701415Y-109208996D01*
X136654524Y-109159923D01*
X136610045Y-109109028D01*
X136568244Y-109056556D01*
X136564573Y-109051700D01*
X136523483Y-108994319D01*
X136485062Y-108934980D01*
X136449432Y-108873901D01*
X136416713Y-108811302D01*
X136387025Y-108747400D01*
X136360489Y-108682413D01*
X136359782Y-108680552D01*
X136336393Y-108614112D01*
X136316229Y-108546756D01*
X136299295Y-108478613D01*
X136285596Y-108409812D01*
X136275135Y-108340483D01*
X136267917Y-108270754D01*
X136263946Y-108200756D01*
X136263227Y-108130617D01*
X136265763Y-108060466D01*
X136271560Y-107990433D01*
X136280621Y-107920647D01*
X136292951Y-107851238D01*
X136308554Y-107782334D01*
X136327435Y-107714064D01*
X136327464Y-107713967D01*
X136349631Y-107646421D01*
X136374862Y-107580316D01*
X136403152Y-107515660D01*
X136434495Y-107452464D01*
X136468885Y-107390738D01*
X136506318Y-107330492D01*
X136546787Y-107271736D01*
X136590287Y-107214480D01*
X136636812Y-107158734D01*
X136641319Y-107153595D01*
X136650589Y-107143346D01*
X136661875Y-107131308D01*
X136674717Y-107117941D01*
X136688653Y-107103704D01*
X136703221Y-107089058D01*
X136717959Y-107074462D01*
X136732404Y-107060376D01*
X136746096Y-107047259D01*
X136758572Y-107035572D01*
X136769371Y-107025775D01*
X136772412Y-107023101D01*
X136828394Y-106976511D01*
X136885865Y-106932958D01*
X136944817Y-106892447D01*
X137005241Y-106854982D01*
X137067131Y-106820567D01*
X137130478Y-106789207D01*
X137195273Y-106760906D01*
X137261510Y-106735668D01*
X137329179Y-106713498D01*
X137353801Y-106706293D01*
X137421329Y-106688891D01*
X137489890Y-106674650D01*
X137559252Y-106663594D01*
X137629182Y-106655744D01*
X137699447Y-106651121D01*
X137769813Y-106649747D01*
X137840048Y-106651644D01*
G36*
X137831212Y-109984595D02*
G01*
X137900541Y-109989348D01*
X137969623Y-109997300D01*
X138038342Y-110008448D01*
X138106579Y-110022790D01*
X138174217Y-110040325D01*
X138241139Y-110061052D01*
X138307226Y-110084967D01*
X138372361Y-110112069D01*
X138418647Y-110133575D01*
X138481318Y-110165878D01*
X138542219Y-110201024D01*
X138601264Y-110238923D01*
X138658370Y-110279482D01*
X138713450Y-110322607D01*
X138766421Y-110368205D01*
X138817196Y-110416185D01*
X138865692Y-110466454D01*
X138911824Y-110518918D01*
X138955506Y-110573485D01*
X138996653Y-110630063D01*
X139035181Y-110688558D01*
X139071005Y-110748878D01*
X139104039Y-110810930D01*
X139134200Y-110874621D01*
X139161401Y-110939860D01*
X139164633Y-110948233D01*
X139188169Y-111014478D01*
X139208480Y-111081620D01*
X139225567Y-111149529D01*
X139239431Y-111218074D01*
X139250072Y-111287124D01*
X139257492Y-111356548D01*
X139261693Y-111426215D01*
X139262674Y-111495993D01*
X139260438Y-111565753D01*
X139254986Y-111635362D01*
X139246318Y-111704690D01*
X139234436Y-111773606D01*
X139219340Y-111841978D01*
X139201033Y-111909677D01*
X139179515Y-111976570D01*
X139155288Y-112041280D01*
X139147515Y-112060426D01*
X139140337Y-112077575D01*
X139133372Y-112093565D01*
X139126238Y-112109235D01*
X139118555Y-112125424D01*
X139109941Y-112142973D01*
X139101059Y-112160660D01*
X139067599Y-112223032D01*
X139031258Y-112283681D01*
X138992127Y-112342499D01*
X138950296Y-112399379D01*
X138905856Y-112454212D01*
X138858897Y-112506890D01*
X138809510Y-112557305D01*
X138757784Y-112605349D01*
X138703811Y-112650914D01*
X138665873Y-112680426D01*
X138625153Y-112710179D01*
X138585264Y-112737487D01*
X138545386Y-112762864D01*
X138504697Y-112786821D01*
X138462377Y-112809871D01*
X138440660Y-112821059D01*
X138400437Y-112840791D01*
X138361545Y-112858540D01*
X138322945Y-112874744D01*
X138283602Y-112889841D01*
X138251007Y-112901379D01*
X138186632Y-112921895D01*
X138122390Y-112939326D01*
X138057858Y-112953753D01*
X137992614Y-112965258D01*
X137926235Y-112973922D01*
X137858300Y-112979826D01*
X137837833Y-112981057D01*
X137824480Y-112981621D01*
X137808474Y-112982038D01*
X137790544Y-112982309D01*
X137771422Y-112982434D01*
X137751836Y-112982414D01*
X137732517Y-112982251D01*
X137714196Y-112981944D01*
X137697601Y-112981495D01*
X137683464Y-112980905D01*
X137682893Y-112980875D01*
X137612456Y-112975441D01*
X137542495Y-112966696D01*
X137473137Y-112954687D01*
X137404505Y-112939462D01*
X137336724Y-112921069D01*
X137269919Y-112899554D01*
X137204215Y-112874965D01*
X137139737Y-112847351D01*
X137076609Y-112816757D01*
X137014956Y-112783233D01*
X136954903Y-112746825D01*
X136896575Y-112707581D01*
X136840096Y-112665548D01*
X136826406Y-112654711D01*
X136771881Y-112608885D01*
X136719892Y-112560869D01*
X136670480Y-112510761D01*
X136623684Y-112458662D01*
X136579545Y-112404670D01*
X136538104Y-112348883D01*
X136499401Y-112291403D01*
X136463476Y-112232326D01*
X136430370Y-112171754D01*
X136400123Y-112109784D01*
X136372776Y-112046515D01*
X136348369Y-111982048D01*
X136326942Y-111916481D01*
X136308536Y-111849914D01*
X136293192Y-111782444D01*
X136280949Y-111714173D01*
X136271848Y-111645198D01*
X136265929Y-111575618D01*
X136263234Y-111505534D01*
X136263801Y-111435044D01*
X136267672Y-111364247D01*
X136274105Y-111299600D01*
X136284253Y-111229774D01*
X136297706Y-111160633D01*
X136314440Y-111092245D01*
X136334428Y-111024684D01*
X136357647Y-110958018D01*
X136384070Y-110892318D01*
X136413673Y-110827656D01*
X136446430Y-110764102D01*
X136482317Y-110701727D01*
X136493986Y-110682780D01*
X136530175Y-110627960D01*
X136569397Y-110574255D01*
X136611410Y-110521904D01*
X136655975Y-110471147D01*
X136702852Y-110422225D01*
X136751800Y-110375377D01*
X136802579Y-110330844D01*
X136854949Y-110288866D01*
X136908671Y-110249682D01*
X136962780Y-110213986D01*
X136993531Y-110195293D01*
X137025858Y-110176656D01*
X137058919Y-110158525D01*
X137091871Y-110141353D01*
X137123873Y-110125593D01*
X137150279Y-110113383D01*
X137215597Y-110086050D01*
X137281846Y-110061934D01*
X137348907Y-110041033D01*
X137416664Y-110023346D01*
X137484998Y-110008869D01*
X137553791Y-109997603D01*
X137622928Y-109989544D01*
X137692288Y-109984691D01*
X137761756Y-109983042D01*
X137831212Y-109984595D01*
G37*
X137831212Y-109984595D02*
X137900541Y-109989348D01*
X137969623Y-109997300D01*
X138038342Y-110008448D01*
X138106579Y-110022790D01*
X138174217Y-110040325D01*
X138241139Y-110061052D01*
X138307226Y-110084967D01*
X138372361Y-110112069D01*
X138418647Y-110133575D01*
X138481318Y-110165878D01*
X138542219Y-110201024D01*
X138601264Y-110238923D01*
X138658370Y-110279482D01*
X138713450Y-110322607D01*
X138766421Y-110368205D01*
X138817196Y-110416185D01*
X138865692Y-110466454D01*
X138911824Y-110518918D01*
X138955506Y-110573485D01*
X138996653Y-110630063D01*
X139035181Y-110688558D01*
X139071005Y-110748878D01*
X139104039Y-110810930D01*
X139134200Y-110874621D01*
X139161401Y-110939860D01*
X139164633Y-110948233D01*
X139188169Y-111014478D01*
X139208480Y-111081620D01*
X139225567Y-111149529D01*
X139239431Y-111218074D01*
X139250072Y-111287124D01*
X139257492Y-111356548D01*
X139261693Y-111426215D01*
X139262674Y-111495993D01*
X139260438Y-111565753D01*
X139254986Y-111635362D01*
X139246318Y-111704690D01*
X139234436Y-111773606D01*
X139219340Y-111841978D01*
X139201033Y-111909677D01*
X139179515Y-111976570D01*
X139155288Y-112041280D01*
X139147515Y-112060426D01*
X139140337Y-112077575D01*
X139133372Y-112093565D01*
X139126238Y-112109235D01*
X139118555Y-112125424D01*
X139109941Y-112142973D01*
X139101059Y-112160660D01*
X139067599Y-112223032D01*
X139031258Y-112283681D01*
X138992127Y-112342499D01*
X138950296Y-112399379D01*
X138905856Y-112454212D01*
X138858897Y-112506890D01*
X138809510Y-112557305D01*
X138757784Y-112605349D01*
X138703811Y-112650914D01*
X138665873Y-112680426D01*
X138625153Y-112710179D01*
X138585264Y-112737487D01*
X138545386Y-112762864D01*
X138504697Y-112786821D01*
X138462377Y-112809871D01*
X138440660Y-112821059D01*
X138400437Y-112840791D01*
X138361545Y-112858540D01*
X138322945Y-112874744D01*
X138283602Y-112889841D01*
X138251007Y-112901379D01*
X138186632Y-112921895D01*
X138122390Y-112939326D01*
X138057858Y-112953753D01*
X137992614Y-112965258D01*
X137926235Y-112973922D01*
X137858300Y-112979826D01*
X137837833Y-112981057D01*
X137824480Y-112981621D01*
X137808474Y-112982038D01*
X137790544Y-112982309D01*
X137771422Y-112982434D01*
X137751836Y-112982414D01*
X137732517Y-112982251D01*
X137714196Y-112981944D01*
X137697601Y-112981495D01*
X137683464Y-112980905D01*
X137682893Y-112980875D01*
X137612456Y-112975441D01*
X137542495Y-112966696D01*
X137473137Y-112954687D01*
X137404505Y-112939462D01*
X137336724Y-112921069D01*
X137269919Y-112899554D01*
X137204215Y-112874965D01*
X137139737Y-112847351D01*
X137076609Y-112816757D01*
X137014956Y-112783233D01*
X136954903Y-112746825D01*
X136896575Y-112707581D01*
X136840096Y-112665548D01*
X136826406Y-112654711D01*
X136771881Y-112608885D01*
X136719892Y-112560869D01*
X136670480Y-112510761D01*
X136623684Y-112458662D01*
X136579545Y-112404670D01*
X136538104Y-112348883D01*
X136499401Y-112291403D01*
X136463476Y-112232326D01*
X136430370Y-112171754D01*
X136400123Y-112109784D01*
X136372776Y-112046515D01*
X136348369Y-111982048D01*
X136326942Y-111916481D01*
X136308536Y-111849914D01*
X136293192Y-111782444D01*
X136280949Y-111714173D01*
X136271848Y-111645198D01*
X136265929Y-111575618D01*
X136263234Y-111505534D01*
X136263801Y-111435044D01*
X136267672Y-111364247D01*
X136274105Y-111299600D01*
X136284253Y-111229774D01*
X136297706Y-111160633D01*
X136314440Y-111092245D01*
X136334428Y-111024684D01*
X136357647Y-110958018D01*
X136384070Y-110892318D01*
X136413673Y-110827656D01*
X136446430Y-110764102D01*
X136482317Y-110701727D01*
X136493986Y-110682780D01*
X136530175Y-110627960D01*
X136569397Y-110574255D01*
X136611410Y-110521904D01*
X136655975Y-110471147D01*
X136702852Y-110422225D01*
X136751800Y-110375377D01*
X136802579Y-110330844D01*
X136854949Y-110288866D01*
X136908671Y-110249682D01*
X136962780Y-110213986D01*
X136993531Y-110195293D01*
X137025858Y-110176656D01*
X137058919Y-110158525D01*
X137091871Y-110141353D01*
X137123873Y-110125593D01*
X137150279Y-110113383D01*
X137215597Y-110086050D01*
X137281846Y-110061934D01*
X137348907Y-110041033D01*
X137416664Y-110023346D01*
X137484998Y-110008869D01*
X137553791Y-109997603D01*
X137622928Y-109989544D01*
X137692288Y-109984691D01*
X137761756Y-109983042D01*
X137831212Y-109984595D01*
G36*
X134519734Y-109985731D02*
G01*
X134590511Y-109991566D01*
X134612880Y-109994105D01*
X134682490Y-110004228D01*
X134751500Y-110017667D01*
X134819814Y-110034386D01*
X134887338Y-110054352D01*
X134953976Y-110077531D01*
X135019632Y-110103889D01*
X135084212Y-110133393D01*
X135147622Y-110166008D01*
X135209764Y-110201700D01*
X135229700Y-110213975D01*
X135284930Y-110250461D01*
X135338979Y-110289966D01*
X135391617Y-110332258D01*
X135442610Y-110377105D01*
X135491726Y-110424276D01*
X135538735Y-110473537D01*
X135583403Y-110524659D01*
X135625500Y-110577407D01*
X135664792Y-110631551D01*
X135698505Y-110682780D01*
X135731400Y-110737861D01*
X135762179Y-110794552D01*
X135790522Y-110852215D01*
X135816112Y-110910210D01*
X135832580Y-110951620D01*
X135855974Y-111018083D01*
X135876154Y-111085500D01*
X135893111Y-111153735D01*
X135906839Y-111222653D01*
X135917328Y-111292119D01*
X135924571Y-111361997D01*
X135928560Y-111432153D01*
X135929288Y-111502449D01*
X135926746Y-111572753D01*
X135920927Y-111642927D01*
X135911823Y-111712837D01*
X135899426Y-111782347D01*
X135884503Y-111848240D01*
X135865568Y-111917005D01*
X135843559Y-111984358D01*
X135818473Y-112050303D01*
X135790306Y-112114846D01*
X135759058Y-112177990D01*
X135724725Y-112239741D01*
X135687305Y-112300104D01*
X135646794Y-112359083D01*
X135603191Y-112416684D01*
X135556493Y-112472911D01*
X135551172Y-112479007D01*
X135544199Y-112486731D01*
X135535194Y-112496359D01*
X135524583Y-112507463D01*
X135512790Y-112519616D01*
X135500242Y-112532388D01*
X135487362Y-112545354D01*
X135474577Y-112558084D01*
X135462311Y-112570152D01*
X135450989Y-112581130D01*
X135441038Y-112590590D01*
X135432881Y-112598105D01*
X135431929Y-112598957D01*
X135376972Y-112645731D01*
X135320301Y-112689623D01*
X135261991Y-112730600D01*
X135202114Y-112768628D01*
X135140744Y-112803672D01*
X135077955Y-112835699D01*
X135013818Y-112864676D01*
X134948409Y-112890568D01*
X134881800Y-112913342D01*
X134814064Y-112932964D01*
X134745276Y-112949400D01*
X134675508Y-112962616D01*
X134626427Y-112969895D01*
X134582577Y-112974929D01*
X134537122Y-112978756D01*
X134490968Y-112981340D01*
X134445025Y-112982645D01*
X134400198Y-112982635D01*
X134357396Y-112981273D01*
X134350413Y-112980906D01*
X134278600Y-112975239D01*
X134207615Y-112966314D01*
X134137538Y-112954168D01*
X134068449Y-112938837D01*
X134000429Y-112920355D01*
X133933558Y-112898760D01*
X133867917Y-112874087D01*
X133803585Y-112846372D01*
X133740643Y-112815650D01*
X133679172Y-112781957D01*
X133619251Y-112745330D01*
X133560961Y-112705805D01*
X133504382Y-112663416D01*
X133449595Y-112618200D01*
X133396679Y-112570193D01*
X133368280Y-112542490D01*
X133319127Y-112490923D01*
X133272665Y-112437346D01*
X133228941Y-112381857D01*
X133188000Y-112324552D01*
X133149888Y-112265529D01*
X133114650Y-112204885D01*
X133082332Y-112142719D01*
X133052980Y-112079128D01*
X133026638Y-112014208D01*
X133003354Y-111948058D01*
X132983171Y-111880775D01*
X132966137Y-111812457D01*
X132952296Y-111743200D01*
X132941694Y-111673103D01*
X132935706Y-111617947D01*
X132931880Y-111562973D01*
X132930080Y-111506359D01*
X132930296Y-111449099D01*
X132932517Y-111392185D01*
X132936732Y-111336611D01*
X132939084Y-111313993D01*
X132948717Y-111243612D01*
X132961632Y-111173983D01*
X132977784Y-111105210D01*
X132997131Y-111037394D01*
X133019632Y-110970638D01*
X133045242Y-110905043D01*
X133073920Y-110840713D01*
X133105622Y-110777748D01*
X133140306Y-110716252D01*
X133177930Y-110656326D01*
X133218450Y-110598073D01*
X133261824Y-110541595D01*
X133261886Y-110541518D01*
X133296184Y-110500689D01*
X133333142Y-110459878D01*
X133372097Y-110419755D01*
X133412385Y-110380987D01*
X133453343Y-110344244D01*
X133479598Y-110322103D01*
X133535103Y-110278657D01*
X133592390Y-110238053D01*
X133651348Y-110200321D01*
X133711868Y-110165493D01*
X133773839Y-110133602D01*
X133837150Y-110104679D01*
X133901692Y-110078756D01*
X133967354Y-110055866D01*
X134034026Y-110036039D01*
X134101597Y-110019309D01*
X134169958Y-110005706D01*
X134238997Y-109995264D01*
X134308604Y-109988013D01*
X134378670Y-109983986D01*
X134449083Y-109983214D01*
X134519734Y-109985731D01*
G37*
X134519734Y-109985731D02*
X134590511Y-109991566D01*
X134612880Y-109994105D01*
X134682490Y-110004228D01*
X134751500Y-110017667D01*
X134819814Y-110034386D01*
X134887338Y-110054352D01*
X134953976Y-110077531D01*
X135019632Y-110103889D01*
X135084212Y-110133393D01*
X135147622Y-110166008D01*
X135209764Y-110201700D01*
X135229700Y-110213975D01*
X135284930Y-110250461D01*
X135338979Y-110289966D01*
X135391617Y-110332258D01*
X135442610Y-110377105D01*
X135491726Y-110424276D01*
X135538735Y-110473537D01*
X135583403Y-110524659D01*
X135625500Y-110577407D01*
X135664792Y-110631551D01*
X135698505Y-110682780D01*
X135731400Y-110737861D01*
X135762179Y-110794552D01*
X135790522Y-110852215D01*
X135816112Y-110910210D01*
X135832580Y-110951620D01*
X135855974Y-111018083D01*
X135876154Y-111085500D01*
X135893111Y-111153735D01*
X135906839Y-111222653D01*
X135917328Y-111292119D01*
X135924571Y-111361997D01*
X135928560Y-111432153D01*
X135929288Y-111502449D01*
X135926746Y-111572753D01*
X135920927Y-111642927D01*
X135911823Y-111712837D01*
X135899426Y-111782347D01*
X135884503Y-111848240D01*
X135865568Y-111917005D01*
X135843559Y-111984358D01*
X135818473Y-112050303D01*
X135790306Y-112114846D01*
X135759058Y-112177990D01*
X135724725Y-112239741D01*
X135687305Y-112300104D01*
X135646794Y-112359083D01*
X135603191Y-112416684D01*
X135556493Y-112472911D01*
X135551172Y-112479007D01*
X135544199Y-112486731D01*
X135535194Y-112496359D01*
X135524583Y-112507463D01*
X135512790Y-112519616D01*
X135500242Y-112532388D01*
X135487362Y-112545354D01*
X135474577Y-112558084D01*
X135462311Y-112570152D01*
X135450989Y-112581130D01*
X135441038Y-112590590D01*
X135432881Y-112598105D01*
X135431929Y-112598957D01*
X135376972Y-112645731D01*
X135320301Y-112689623D01*
X135261991Y-112730600D01*
X135202114Y-112768628D01*
X135140744Y-112803672D01*
X135077955Y-112835699D01*
X135013818Y-112864676D01*
X134948409Y-112890568D01*
X134881800Y-112913342D01*
X134814064Y-112932964D01*
X134745276Y-112949400D01*
X134675508Y-112962616D01*
X134626427Y-112969895D01*
X134582577Y-112974929D01*
X134537122Y-112978756D01*
X134490968Y-112981340D01*
X134445025Y-112982645D01*
X134400198Y-112982635D01*
X134357396Y-112981273D01*
X134350413Y-112980906D01*
X134278600Y-112975239D01*
X134207615Y-112966314D01*
X134137538Y-112954168D01*
X134068449Y-112938837D01*
X134000429Y-112920355D01*
X133933558Y-112898760D01*
X133867917Y-112874087D01*
X133803585Y-112846372D01*
X133740643Y-112815650D01*
X133679172Y-112781957D01*
X133619251Y-112745330D01*
X133560961Y-112705805D01*
X133504382Y-112663416D01*
X133449595Y-112618200D01*
X133396679Y-112570193D01*
X133368280Y-112542490D01*
X133319127Y-112490923D01*
X133272665Y-112437346D01*
X133228941Y-112381857D01*
X133188000Y-112324552D01*
X133149888Y-112265529D01*
X133114650Y-112204885D01*
X133082332Y-112142719D01*
X133052980Y-112079128D01*
X133026638Y-112014208D01*
X133003354Y-111948058D01*
X132983171Y-111880775D01*
X132966137Y-111812457D01*
X132952296Y-111743200D01*
X132941694Y-111673103D01*
X132935706Y-111617947D01*
X132931880Y-111562973D01*
X132930080Y-111506359D01*
X132930296Y-111449099D01*
X132932517Y-111392185D01*
X132936732Y-111336611D01*
X132939084Y-111313993D01*
X132948717Y-111243612D01*
X132961632Y-111173983D01*
X132977784Y-111105210D01*
X132997131Y-111037394D01*
X133019632Y-110970638D01*
X133045242Y-110905043D01*
X133073920Y-110840713D01*
X133105622Y-110777748D01*
X133140306Y-110716252D01*
X133177930Y-110656326D01*
X133218450Y-110598073D01*
X133261824Y-110541595D01*
X133261886Y-110541518D01*
X133296184Y-110500689D01*
X133333142Y-110459878D01*
X133372097Y-110419755D01*
X133412385Y-110380987D01*
X133453343Y-110344244D01*
X133479598Y-110322103D01*
X133535103Y-110278657D01*
X133592390Y-110238053D01*
X133651348Y-110200321D01*
X133711868Y-110165493D01*
X133773839Y-110133602D01*
X133837150Y-110104679D01*
X133901692Y-110078756D01*
X133967354Y-110055866D01*
X134034026Y-110036039D01*
X134101597Y-110019309D01*
X134169958Y-110005706D01*
X134238997Y-109995264D01*
X134308604Y-109988013D01*
X134378670Y-109983986D01*
X134449083Y-109983214D01*
X134519734Y-109985731D01*
G36*
X131168681Y-109984809D02*
G01*
X131238799Y-109989844D01*
X131308748Y-109998161D01*
X131378413Y-110009767D01*
X131447677Y-110024670D01*
X131516424Y-110042877D01*
X131531860Y-110047445D01*
X131599218Y-110069524D01*
X131665196Y-110094693D01*
X131729773Y-110122940D01*
X131792929Y-110154254D01*
X131854640Y-110188623D01*
X131914887Y-110226034D01*
X131973648Y-110266475D01*
X132030901Y-110309936D01*
X132086624Y-110356403D01*
X132092231Y-110361319D01*
X132102480Y-110370589D01*
X132114518Y-110381875D01*
X132127886Y-110394717D01*
X132142122Y-110408653D01*
X132156769Y-110423221D01*
X132171365Y-110437959D01*
X132185451Y-110452404D01*
X132198567Y-110466096D01*
X132210254Y-110478572D01*
X132220051Y-110489371D01*
X132222725Y-110492412D01*
X132269280Y-110548332D01*
X132312757Y-110605660D01*
X132353172Y-110664421D01*
X132390539Y-110724640D01*
X132424871Y-110786341D01*
X132456184Y-110849551D01*
X132484491Y-110914293D01*
X132509808Y-110980592D01*
X132519169Y-111007761D01*
X132537533Y-111066697D01*
X132553334Y-111126018D01*
X132566660Y-111186170D01*
X132577599Y-111247598D01*
X132586240Y-111310748D01*
X132592670Y-111376065D01*
X132593051Y-111380880D01*
X132593650Y-111390795D01*
X132594150Y-111403551D01*
X132594551Y-111418630D01*
X132594853Y-111435516D01*
X132595056Y-111453693D01*
X132595159Y-111472645D01*
X132595164Y-111491855D01*
X132595069Y-111510807D01*
X132594875Y-111528984D01*
X132594581Y-111545871D01*
X132594188Y-111560950D01*
X132593695Y-111573705D01*
X132593103Y-111583621D01*
X132593067Y-111584080D01*
X132587866Y-111639865D01*
X132581300Y-111693118D01*
X132573261Y-111744454D01*
X132563638Y-111794486D01*
X132552322Y-111843829D01*
X132539205Y-111893095D01*
X132536027Y-111904120D01*
X132514542Y-111971652D01*
X132489961Y-112037882D01*
X132462349Y-112102714D01*
X132431773Y-112166055D01*
X132398299Y-112227810D01*
X132361995Y-112287884D01*
X132322926Y-112346185D01*
X132281158Y-112402617D01*
X132236760Y-112457086D01*
X132189796Y-112509498D01*
X132140334Y-112559759D01*
X132088440Y-112607774D01*
X132034181Y-112653450D01*
X131977623Y-112696691D01*
X131975634Y-112698137D01*
X131917471Y-112738251D01*
X131857561Y-112775497D01*
X131796029Y-112809828D01*
X131733002Y-112841197D01*
X131668605Y-112869556D01*
X131602963Y-112894859D01*
X131536204Y-112917059D01*
X131468451Y-112936108D01*
X131399831Y-112951959D01*
X131330470Y-112964566D01*
X131260493Y-112973881D01*
X131231293Y-112976770D01*
X131197373Y-112979323D01*
X131161553Y-112981166D01*
X131124848Y-112982280D01*
X131088275Y-112982644D01*
X131052851Y-112982240D01*
X131019591Y-112981048D01*
X131016240Y-112980875D01*
X130945908Y-112975450D01*
X130876030Y-112966719D01*
X130806736Y-112954731D01*
X130738155Y-112939534D01*
X130670419Y-112921176D01*
X130603656Y-112899705D01*
X130537999Y-112875171D01*
X130473575Y-112847621D01*
X130410517Y-112817105D01*
X130348953Y-112783669D01*
X130289014Y-112747362D01*
X130230831Y-112708234D01*
X130178887Y-112669725D01*
X130155762Y-112651480D01*
X130134161Y-112633779D01*
X130113450Y-112616060D01*
X130092994Y-112597759D01*
X130072162Y-112578313D01*
X130050318Y-112557160D01*
X130034036Y-112540984D01*
X130010901Y-112517467D01*
X129989873Y-112495350D01*
X129970373Y-112473968D01*
X129951823Y-112452657D01*
X129933646Y-112430752D01*
X129915263Y-112407587D01*
X129896096Y-112382499D01*
X129895129Y-112381212D01*
X129854037Y-112323680D01*
X129815871Y-112264502D01*
X129780660Y-112203786D01*
X129748431Y-112141639D01*
X129719215Y-112078168D01*
X129693039Y-112013480D01*
X129669932Y-111947683D01*
X129649922Y-111880884D01*
X129633038Y-111813190D01*
X129619308Y-111744708D01*
X129608762Y-111675547D01*
X129601427Y-111605812D01*
X129597332Y-111535612D01*
X129596505Y-111465054D01*
X129598976Y-111394245D01*
X129604772Y-111323292D01*
X129607452Y-111299600D01*
X129617550Y-111230176D01*
X129630953Y-111161320D01*
X129647604Y-111093170D01*
X129667447Y-111025863D01*
X129690428Y-110959537D01*
X129716492Y-110894328D01*
X129745581Y-110830375D01*
X129777642Y-110767815D01*
X129812619Y-110706785D01*
X129850456Y-110647423D01*
X129891098Y-110589866D01*
X129896622Y-110582473D01*
X129940928Y-110526351D01*
X129987623Y-110472595D01*
X130036636Y-110421268D01*
X130087896Y-110372427D01*
X130141332Y-110326134D01*
X130196871Y-110282448D01*
X130254443Y-110241430D01*
X130313976Y-110203140D01*
X130375399Y-110167636D01*
X130414260Y-110147122D01*
X130427120Y-110140631D01*
X130440479Y-110133995D01*
X130453617Y-110127562D01*
X130465814Y-110121684D01*
X130476352Y-110116710D01*
X130483625Y-110113383D01*
X130549077Y-110085995D01*
X130615516Y-110061818D01*
X130682827Y-110040856D01*
X130750892Y-110023119D01*
X130819598Y-110008614D01*
X130888828Y-109997346D01*
X130958467Y-109989325D01*
X131028400Y-109984557D01*
X131098509Y-109983049D01*
X131168681Y-109984809D01*
G37*
X131168681Y-109984809D02*
X131238799Y-109989844D01*
X131308748Y-109998161D01*
X131378413Y-110009767D01*
X131447677Y-110024670D01*
X131516424Y-110042877D01*
X131531860Y-110047445D01*
X131599218Y-110069524D01*
X131665196Y-110094693D01*
X131729773Y-110122940D01*
X131792929Y-110154254D01*
X131854640Y-110188623D01*
X131914887Y-110226034D01*
X131973648Y-110266475D01*
X132030901Y-110309936D01*
X132086624Y-110356403D01*
X132092231Y-110361319D01*
X132102480Y-110370589D01*
X132114518Y-110381875D01*
X132127886Y-110394717D01*
X132142122Y-110408653D01*
X132156769Y-110423221D01*
X132171365Y-110437959D01*
X132185451Y-110452404D01*
X132198567Y-110466096D01*
X132210254Y-110478572D01*
X132220051Y-110489371D01*
X132222725Y-110492412D01*
X132269280Y-110548332D01*
X132312757Y-110605660D01*
X132353172Y-110664421D01*
X132390539Y-110724640D01*
X132424871Y-110786341D01*
X132456184Y-110849551D01*
X132484491Y-110914293D01*
X132509808Y-110980592D01*
X132519169Y-111007761D01*
X132537533Y-111066697D01*
X132553334Y-111126018D01*
X132566660Y-111186170D01*
X132577599Y-111247598D01*
X132586240Y-111310748D01*
X132592670Y-111376065D01*
X132593051Y-111380880D01*
X132593650Y-111390795D01*
X132594150Y-111403551D01*
X132594551Y-111418630D01*
X132594853Y-111435516D01*
X132595056Y-111453693D01*
X132595159Y-111472645D01*
X132595164Y-111491855D01*
X132595069Y-111510807D01*
X132594875Y-111528984D01*
X132594581Y-111545871D01*
X132594188Y-111560950D01*
X132593695Y-111573705D01*
X132593103Y-111583621D01*
X132593067Y-111584080D01*
X132587866Y-111639865D01*
X132581300Y-111693118D01*
X132573261Y-111744454D01*
X132563638Y-111794486D01*
X132552322Y-111843829D01*
X132539205Y-111893095D01*
X132536027Y-111904120D01*
X132514542Y-111971652D01*
X132489961Y-112037882D01*
X132462349Y-112102714D01*
X132431773Y-112166055D01*
X132398299Y-112227810D01*
X132361995Y-112287884D01*
X132322926Y-112346185D01*
X132281158Y-112402617D01*
X132236760Y-112457086D01*
X132189796Y-112509498D01*
X132140334Y-112559759D01*
X132088440Y-112607774D01*
X132034181Y-112653450D01*
X131977623Y-112696691D01*
X131975634Y-112698137D01*
X131917471Y-112738251D01*
X131857561Y-112775497D01*
X131796029Y-112809828D01*
X131733002Y-112841197D01*
X131668605Y-112869556D01*
X131602963Y-112894859D01*
X131536204Y-112917059D01*
X131468451Y-112936108D01*
X131399831Y-112951959D01*
X131330470Y-112964566D01*
X131260493Y-112973881D01*
X131231293Y-112976770D01*
X131197373Y-112979323D01*
X131161553Y-112981166D01*
X131124848Y-112982280D01*
X131088275Y-112982644D01*
X131052851Y-112982240D01*
X131019591Y-112981048D01*
X131016240Y-112980875D01*
X130945908Y-112975450D01*
X130876030Y-112966719D01*
X130806736Y-112954731D01*
X130738155Y-112939534D01*
X130670419Y-112921176D01*
X130603656Y-112899705D01*
X130537999Y-112875171D01*
X130473575Y-112847621D01*
X130410517Y-112817105D01*
X130348953Y-112783669D01*
X130289014Y-112747362D01*
X130230831Y-112708234D01*
X130178887Y-112669725D01*
X130155762Y-112651480D01*
X130134161Y-112633779D01*
X130113450Y-112616060D01*
X130092994Y-112597759D01*
X130072162Y-112578313D01*
X130050318Y-112557160D01*
X130034036Y-112540984D01*
X130010901Y-112517467D01*
X129989873Y-112495350D01*
X129970373Y-112473968D01*
X129951823Y-112452657D01*
X129933646Y-112430752D01*
X129915263Y-112407587D01*
X129896096Y-112382499D01*
X129895129Y-112381212D01*
X129854037Y-112323680D01*
X129815871Y-112264502D01*
X129780660Y-112203786D01*
X129748431Y-112141639D01*
X129719215Y-112078168D01*
X129693039Y-112013480D01*
X129669932Y-111947683D01*
X129649922Y-111880884D01*
X129633038Y-111813190D01*
X129619308Y-111744708D01*
X129608762Y-111675547D01*
X129601427Y-111605812D01*
X129597332Y-111535612D01*
X129596505Y-111465054D01*
X129598976Y-111394245D01*
X129604772Y-111323292D01*
X129607452Y-111299600D01*
X129617550Y-111230176D01*
X129630953Y-111161320D01*
X129647604Y-111093170D01*
X129667447Y-111025863D01*
X129690428Y-110959537D01*
X129716492Y-110894328D01*
X129745581Y-110830375D01*
X129777642Y-110767815D01*
X129812619Y-110706785D01*
X129850456Y-110647423D01*
X129891098Y-110589866D01*
X129896622Y-110582473D01*
X129940928Y-110526351D01*
X129987623Y-110472595D01*
X130036636Y-110421268D01*
X130087896Y-110372427D01*
X130141332Y-110326134D01*
X130196871Y-110282448D01*
X130254443Y-110241430D01*
X130313976Y-110203140D01*
X130375399Y-110167636D01*
X130414260Y-110147122D01*
X130427120Y-110140631D01*
X130440479Y-110133995D01*
X130453617Y-110127562D01*
X130465814Y-110121684D01*
X130476352Y-110116710D01*
X130483625Y-110113383D01*
X130549077Y-110085995D01*
X130615516Y-110061818D01*
X130682827Y-110040856D01*
X130750892Y-110023119D01*
X130819598Y-110008614D01*
X130888828Y-109997346D01*
X130958467Y-109989325D01*
X131028400Y-109984557D01*
X131098509Y-109983049D01*
X131168681Y-109984809D01*
G04 #@! TD*
D13*
G04 #@! TO.P,XA1,*
G04 #@! TO.N,*
X115680000Y-92600000D03*
G04 #@! TO.P,XA1,RST2*
G04 #@! TO.N,Net-(XA1-PadRST2)*
X123300000Y-77360000D03*
D14*
G04 #@! TO.P,XA1,MOSI*
G04 #@! TO.N,Net-(U1-Pad7)*
X133460000Y-77360000D03*
D13*
G04 #@! TO.P,XA1,SCK*
G04 #@! TO.N,Net-(U1-Pad9)*
X133460000Y-92600000D03*
G04 #@! TO.P,XA1,A0*
G04 #@! TO.N,Net-(XA1-PadA0)*
X100440000Y-92600000D03*
G04 #@! TO.P,XA1,VIN*
G04 #@! TO.N,Net-(XA1-PadVIN)*
X128380000Y-92600000D03*
G04 #@! TO.P,XA1,GND2*
G04 #@! TO.N,Net-(XA1-PadGND2)*
X120760000Y-77360000D03*
G04 #@! TO.P,XA1,GND1*
G04 #@! TO.N,GND*
X125840000Y-92600000D03*
G04 #@! TO.P,XA1,5V*
G04 #@! TO.N,+5V*
X120760000Y-92600000D03*
G04 #@! TO.P,XA1,3V3*
G04 #@! TO.N,Net-(XA1-Pad3V3)*
X95360000Y-92600000D03*
G04 #@! TO.P,XA1,RST1*
G04 #@! TO.N,Net-(C1-Pad2)*
X123300000Y-92600000D03*
G04 #@! TO.P,XA1,SS*
G04 #@! TO.N,Net-(XA1-PadSS)*
X130920000Y-77360000D03*
G04 #@! TO.P,XA1,D0*
G04 #@! TO.N,Net-(XA1-PadD0)*
X125840000Y-77360000D03*
G04 #@! TO.P,XA1,D1*
G04 #@! TO.N,Net-(XA1-PadD1)*
X128380000Y-77360000D03*
G04 #@! TO.P,XA1,D2*
G04 #@! TO.N,Net-(XA1-PadD2)*
X118220000Y-77360000D03*
G04 #@! TO.P,XA1,D3*
G04 #@! TO.N,Net-(XA1-PadD3)*
X115680000Y-77360000D03*
G04 #@! TO.P,XA1,D4*
G04 #@! TO.N,Net-(XA1-PadD4)*
X113140000Y-77360000D03*
G04 #@! TO.P,XA1,D5*
G04 #@! TO.N,Net-(XA1-PadD5)*
X110600000Y-77360000D03*
G04 #@! TO.P,XA1,D6*
G04 #@! TO.N,Net-(XA1-PadD6)*
X108060000Y-77360000D03*
G04 #@! TO.P,XA1,D7*
G04 #@! TO.N,Net-(XA1-PadD7)*
X105520000Y-77360000D03*
G04 #@! TO.P,XA1,D8*
G04 #@! TO.N,Net-(XA1-PadD8)*
X102980000Y-77360000D03*
G04 #@! TO.P,XA1,D9*
G04 #@! TO.N,Net-(XA1-PadD9)*
X100440000Y-77360000D03*
G04 #@! TO.P,XA1,D10*
G04 #@! TO.N,Net-(U1-Pad4)*
X97900000Y-77360000D03*
G04 #@! TO.P,XA1,AREF*
G04 #@! TO.N,Net-(XA1-PadAREF)*
X97900000Y-92600000D03*
G04 #@! TO.P,XA1,D13*
G04 #@! TO.N,Net-(XA1-PadD13)*
X92820000Y-92600000D03*
G04 #@! TO.P,XA1,D12*
G04 #@! TO.N,Net-(XA1-PadD12)*
X92820000Y-77360000D03*
G04 #@! TO.P,XA1,D11*
G04 #@! TO.N,Net-(XA1-PadD11)*
X95360000Y-77360000D03*
G04 #@! TO.P,XA1,*
G04 #@! TO.N,*
X118220000Y-92600000D03*
G04 #@! TO.P,XA1,A1*
G04 #@! TO.N,Net-(XA1-PadA1)*
X102980000Y-92600000D03*
G04 #@! TO.P,XA1,A2*
G04 #@! TO.N,Net-(XA1-PadA2)*
X105520000Y-92600000D03*
G04 #@! TO.P,XA1,A3*
G04 #@! TO.N,Net-(XA1-PadA3)*
X108060000Y-92600000D03*
G04 #@! TO.P,XA1,A4*
G04 #@! TO.N,Net-(XA1-PadA4)*
X110600000Y-92600000D03*
G04 #@! TO.P,XA1,A5*
G04 #@! TO.N,Net-(XA1-PadA5)*
X113140000Y-92600000D03*
G04 #@! TO.P,XA1,MISO*
G04 #@! TO.N,Net-(U1-Pad8)*
X130920000Y-92600000D03*
G04 #@! TD*
D15*
G04 #@! TO.P,C1,1*
G04 #@! TO.N,GND*
X124460000Y-99060000D03*
D16*
G04 #@! TO.P,C1,2*
G04 #@! TO.N,Net-(C1-Pad2)*
X122960000Y-99060000D03*
G04 #@! TD*
D17*
G04 #@! TO.P,D1,1*
G04 #@! TO.N,GND*
X128270000Y-106680000D03*
D18*
G04 #@! TO.P,D1,2*
G04 #@! TO.N,Net-(D1-Pad2)*
X125730000Y-106680000D03*
G04 #@! TD*
D19*
G04 #@! TO.P,R1,1*
G04 #@! TO.N,Net-(R1-Pad1)*
X110490000Y-106680000D03*
D20*
G04 #@! TO.P,R1,2*
G04 #@! TO.N,Net-(D1-Pad2)*
X120650000Y-106680000D03*
G04 #@! TD*
D21*
G04 #@! TO.P,U1,1*
G04 #@! TO.N,+5V*
X105410000Y-99060000D03*
D20*
G04 #@! TO.P,U1,8*
G04 #@! TO.N,Net-(U1-Pad8)*
X90170000Y-106680000D03*
G04 #@! TO.P,U1,2*
G04 #@! TO.N,Net-(U1-Pad2)*
X102870000Y-99060000D03*
G04 #@! TO.P,U1,9*
G04 #@! TO.N,Net-(U1-Pad9)*
X92710000Y-106680000D03*
G04 #@! TO.P,U1,3*
G04 #@! TO.N,Net-(U1-Pad3)*
X100330000Y-99060000D03*
G04 #@! TO.P,U1,10*
G04 #@! TO.N,Net-(U1-Pad10)*
X95250000Y-106680000D03*
G04 #@! TO.P,U1,4*
G04 #@! TO.N,Net-(U1-Pad4)*
X97790000Y-99060000D03*
G04 #@! TO.P,U1,11*
G04 #@! TO.N,Net-(U1-Pad11)*
X97790000Y-106680000D03*
G04 #@! TO.P,U1,5*
G04 #@! TO.N,Net-(U1-Pad5)*
X95250000Y-99060000D03*
G04 #@! TO.P,U1,12*
G04 #@! TO.N,Net-(U1-Pad12)*
X100330000Y-106680000D03*
G04 #@! TO.P,U1,6*
G04 #@! TO.N,Net-(U1-Pad6)*
X92710000Y-99060000D03*
G04 #@! TO.P,U1,13*
G04 #@! TO.N,Net-(R1-Pad1)*
X102870000Y-106680000D03*
G04 #@! TO.P,U1,7*
G04 #@! TO.N,Net-(U1-Pad7)*
X90170000Y-99060000D03*
G04 #@! TO.P,U1,14*
G04 #@! TO.N,GND*
X105410000Y-106680000D03*
G04 #@! TD*
M02*
